<?xml version="1.0" standalone="no"?>
<!DOCTYPE svg PUBLIC "-//W3C//DTD SVG 1.1//EN" "http://www.w3.org/Graphics/SVG/1.1/DTD/svg11.dtd">
<svg xmlns="http://www.w3.org/2000/svg">
<metadata>Copyright (C) 2015 by original authors @ fontello.com</metadata>
<defs>
<font id="fontello" horiz-adv-x="1000" >
<font-face font-family="fontello" font-weight="400" font-stretch="normal" units-per-em="1000" ascent="850" descent="-150" />
<missing-glyph horiz-adv-x="1000" />
<glyph glyph-name="glyph" unicode="&#xe600;" d="m975 442c-15 15-40 15-55 0l-21-21c-35 188-200 330-399 330-157 0-293-89-361-219-5-9-4-9-5-10 0 0 0 0 0 0 0 0 0 0 0 0v0c-2-5-3-10-3-16 0-21 18-39 39-39 15 0 28 9 35 21v0c15 33 37 63 63 89 62 62 145 96 232 96s170-34 232-96c45-44 75-99 88-159l-25 25c-15 15-40 15-55 0s-16-40 0-55l90-90c7-8 18-12 28-12 10 0 21 4 29 12l88 89c16 15 16 40 0 55z m-145-219c-15 0-28-8-34-21v0c-16-32-38-62-64-89-62-62-144-96-232-96s-170 34-232 96c-47 47-78 106-90 170l28-28c16-16 40-16 56 0s15 40 0 55l-91 90c-7 8-18 12-28 11-10 1-21-3-28-11l-89-89c-16-15-16-40 0-55s40-15 55 0l19 19c33-191 200-336 400-336 157 0 294 89 361 220 5 9 4 8 5 10 0 0 0 0 0 0 0 0 0 0 0 0v0c2 4 3 10 3 15 0 21-17 39-39 39z m-687 95l1-1-2 0 1 1z" horiz-adv-x="1000" />
<glyph glyph-name="glyph-1" unicode="&#xe601;" d="m500 787c-242 0-437-196-437-438s195-438 437-438 438 196 438 438-196 438-438 438z m258-688c-54 53-152 94-185 99-14 2-15 42-15 42s43 43 52 100c25 0 41 60 16 81 1 23 32 177-126 177s-127-154-126-177c-25-21-9-81 16-81 9-57 52-100 52-100s0-40-15-42c-33-5-131-46-185-99-65 67-101 156-101 250 0 96 37 186 105 254 68 68 158 105 254 105s186-37 254-105c68-68 105-158 105-254 0-94-35-183-101-250z" horiz-adv-x="1000" />
<glyph glyph-name="glyph-2" unicode="&#xe602;" d="m904 647c-2 0-4 0-6 0h-460v39c0 20-15 36-34 39-2 0-4 0-5 0h-172c-2 0-4 0-5 0-20-3-34-19-34-39v-39h-86c-2 0-4 0-5 0-20-3-34-19-34-39v-516c0-21 17-39 39-39h796c14 0 26 7 33 17 0 1 0 1 0 1 1 1 1 2 2 3 0 0 0 0 0 0 3 5 5 12 5 18 0 0 0 0 0 0v516c0 20-15 36-34 39z m-45-516h-718v438h718v-438z m-359 326c59 0 107-48 107-107s-48-107-107-107-107 48-107 107 48 107 107 107z m0 78c-102 0-185-83-185-185s83-185 185-185c102 0 185 83 185 185s-83 185-185 185v0z" horiz-adv-x="1000" />
<glyph glyph-name="glyph-3" unicode="&#xe603;" d="m250 5c0-52-42-94-94-94-51 0-93 42-93 94 0 52 42 94 93 94s94-42 94-94z m248-52c0 0 0 0 0 1 0 0 0 1 0 2-10 103-57 195-126 265v0c-69 69-162 115-265 126-1 0-2 0-2 0 0 0-1 0-1 0 0 0 0 0 0 0-1 0-2 0-2 0-22 0-39-17-39-39 0-20 15-37 34-39 0 0 0 0 0 0 83-8 160-44 220-103v0c59-60 95-137 103-220 0 0 0 0 0 0 3-19 19-35 39-35 22 0 39 18 39 40 0 0 0 1 0 1 0 1 0 1 0 1z m220 0c0 0 0 0-1 0 0 1 0 1 0 2-10 164-81 311-190 421l0 0c-110 109-257 180-421 190 0 0-1 0-2 0 0 0 0 0 0 0 0 0 0 0 0 0-1 0-1 1-2 1-22 0-39-18-39-40 0-20 16-37 36-38 0 0 0 0 0 0 65-4 128-19 189-45 68-29 130-71 183-124v0c54-53 95-115 124-183 26-61 41-124 45-189 0 0 0 0 0-1 1-20 18-36 39-36 21 0 39 18 39 40 0 0 0 1 0 2 0 0 0 0 0 0z m219-2c0 0 0 0 0 0-10 226-106 430-256 579v0c-149 150-353 246-579 256 0 0 0 0 0 0 0 0 0 0 0 0-22 0-39-18-39-39 0-21 15-38 35-39 1 0 1 0 1 0 95-5 187-25 274-62 95-40 180-98 253-171v0c73-73 131-158 171-253 37-87 57-179 62-274 0 0 0-1 0-1 1-20 18-36 39-36 21 0 39 18 39 39 0 1 0 1 0 1z" horiz-adv-x="1000" />
<glyph glyph-name="glyph-4" unicode="&#xe604;" d="m898 788h-796c-22 0-39-18-39-40v-796c0-22 17-40 39-40h796c22 0 40 18 40 40v796c0 22-18 40-40 40z m-39-79v-439l-229 230c-8 7-18 11-28 11s-20-4-28-11l-166-166-40 40c-15 15-40 15-55 0l-172-172v507h718z m-718-718v100l200 200 211-211c7-7 17-11 27-11s20 4 28 11c15 16 15 40 0 56l-143 143 138 138 257-257v-169h-718z m207 468c51 0 93 41 93 93s-42 92-93 92-93-41-93-92 42-93 93-93z m0 146c29 0 54-24 54-53s-25-54-54-54-54 24-54 54 24 53 54 53z" horiz-adv-x="1000" />
<glyph glyph-name="glyph-5" unicode="&#xe605;" d="m926 378l-398 398c-8 8-18 11-28 11s-20-3-28-11l-398-398c-15-16-15-40 0-56s40-15 55 0l19 20v-359c0-21 18-39 40-39h186c0 0 1 0 1 0 11 0 21 5 28 12 7 7 11 17 11 27 0 1 0 1 0 2v257h172v-258c0-22 17-39 39-39l187 0c3 0 5 0 7 0 0 0 1 0 1 0 1 1 1 1 1 1 17 3 30 19 30 38v358l20-19c15-16 40-16 55 0s15 40 0 55z m-153 34v-389l-109 0v258c0 0 0 0 0 0 0 0 0 0 0 0 0 21-17 39-39 39h-248c-1 0-1 0-2 0 0 0 0 0 0 0-22 0-39-18-39-39v-258h-109v390c0 2-1 4-1 6l274 274 274-274c0-2-1-4-1-7z" horiz-adv-x="1000" />
<glyph glyph-name="glyph-6" unicode="&#xe606;" d="m938 622c-33-14-67-24-104-28 37 22 66 58 79 99-34-20-73-35-114-43-32 35-79 57-131 57-99 0-179-81-179-180 0-14 1-28 4-41-149 8-281 79-369 188-16-27-25-58-25-91 0-62 32-117 80-149-29 1-57 9-81 22 0 0 0-1 0-2 0-87 62-159 144-176-15-4-31-6-48-6-11 0-22 1-33 3 22-71 89-123 167-125-61-48-139-76-223-76-14 0-28 0-42 2 79-51 173-81 275-81 330 0 510 274 510 511 0 8 0 16 0 23 35 26 65 57 90 93z" horiz-adv-x="1000" />
<glyph glyph-name="glyph-7" unicode="&#xe607;" d="m742-88c-10 0-20 4-27 12l-215 214-215-214c-11-11-28-15-42-9-15 6-24 21-24 36v797c0 22 17 40 39 40h484c22 0 39-18 39-40v-797c0-15-9-30-24-36-5-2-10-3-15-3z m-242 320c10 0 20-4 28-12l175-174v663h-406v-663l176 174c7 8 17 12 27 12z" horiz-adv-x="1000" />
<glyph glyph-name="glyph-8" unicode="&#xe608;" d="m742-88c-10 0-20 4-27 12l-215 214-215-214c-11-11-28-15-42-9-15 6-24 21-24 36v797c0 22 17 40 39 40h484c22 0 39-18 39-40v-797c0-15-9-30-24-36-5-2-10-3-15-3z" horiz-adv-x="1000" />
<glyph glyph-name="glyph-9" unicode="&#xe609;" d="m926 655c-15 15-40 15-55 0l-523-523-219 219c-15 15-40 15-55 0-15-16-15-40 0-56l246-245c0 0 0-1 0-1 8-8 18-11 28-11 10 0 20 3 28 11 0 0 0 0 0 1l550 550c16 15 16 40 0 55z" horiz-adv-x="1000" />
<glyph glyph-name="glyph-10" unicode="&#xe60a;" d="m500-87c-13 0-25 6-32 17l-237 354c0 0 0 0 0 0-36 54-55 116-55 180 0 178 146 323 324 323 178 0 324-145 324-323 0-59-17-117-47-168-1-1-2-3-3-4l-5-9c0 0 0 0-1 0 0 0 0 0 0 0l-235-353c-8-11-20-17-33-17z m-204 414l0 0c0 0 1 0 1-1l203-304 207 310c1 1 1 2 2 2 24 39 36 84 36 130 0 135-110 245-245 245s-245-110-245-245c0-49 14-96 41-137 0 0 0 0 0 0z m204 226c49 0 89-40 89-89 0-49-40-88-89-88s-88 39-88 88c0 49 39 89 88 89z m0 78c-92 0-167-75-167-167s75-166 167-166 167 74 167 166-75 167-167 167v0z" horiz-adv-x="1000" />
<glyph glyph-name="glyph-11" unicode="&#xe60d;" d="m990-83l-434 433 434 433c15 16 15 40 0 56-16 15-40 15-56 0l-433-434-433 434c-16 15-40 15-56 0s-15-40 0-56l434-433-434-433c-15-16-15-40 0-56s40-15 56 0l433 434 433-434c16-15 40-15 56 0 15 16 15 40 0 56z" horiz-adv-x="1000" />
<glyph glyph-name="glyph-12" unicode="&#xe613;" d="m809 659c-170 171-447 171-618 0-171-170-171-447 0-618 171-171 448-171 618 0 171 171 171 448 0 618z m-55-563c-68-68-158-105-254-105s-186 37-254 105c-68 68-105 158-105 254 0 96 37 186 105 254s158 105 254 105c96 0 186-37 254-105s105-158 105-254c0-96-37-186-105-254z m-253-12c-22 0-39 17-39 39v0c0 21 17 39 39 39v0c22 0 39-18 39-39v0c0-22-17-39-39-39v0z m171 375c0 95-77 172-172 172-95 0-172-77-172-172 0-22 17-39 39-39s39 17 39 39c0 0 0 0 0 0 0 52 42 94 94 94 52 0 94-42 94-94 0-52-42-94-94-94v-1c-21 0-38-17-38-39v-85c0-22 17-40 39-40 22 0 39 18 39 40l0 51c76 18 132 86 132 168z" horiz-adv-x="1000" />
<glyph glyph-name="glyph-13" unicode="&#xe617;" d="m875 14v547c0 22-17 39-39 39h-174c-22 0-40-17-40-39s18-39 40-39h135v-469h-594v469h134c22 0 39 17 39 39s-17 39-39 39h-174c-22 0-39-17-39-39 0-3 0-7 1-10v-537c0-22 18-39 39-39h672c22 0 39 17 39 39 0 0 0 0 0 0z m-225 703l-121 122c-8 7-19 11-29 11-2 0-3 0-5 0 0 0-1 0-1 0-1 0-2-1-2-1-1 0-2 0-2 0-1 0-2 0-2-1-1 0-1 0-2 0-1 0-1-1-2-1 0 0-1 0-1-1-1 0-2 0-2-1-1 0-1 0-2-1 0 0-1 0-1-1-1 0-2 0-2-1-1 0-1 0-2-1-1-1-2-2-2-2l-122-122c-15-15-15-40 0-55 15-15 40-15 55 0l55 55v-429c0-22 18-40 39-40s39 18 39 40v430l57-56c15-15 40-15 55 0 15 15 15 40 0 55z" horiz-adv-x="1000" />
<glyph glyph-name="glyph-14" unicode="&#xe619;" d="m938 588c0 10-3 20-9 28-6 7-14 12-22 13 0 0-1 0-1 1-1 0-2 0-3 0 0 0 0 0-1 0-1 0-2 0-3 0 0 0 0 0 0 0h-797c-21 0-38-16-39-37 0 0 0-1 0-2 0 0 0 0 0 0 0 0 0 0 0 0v-484c0 0 0 0 0 0 0-22 17-39 39-39h797c13 0 25 7 32 17 0 0 0 0 0 0 1 1 1 2 2 3 0 0 0 0 0 0 3 6 5 12 5 19v0 0 481z m-797-80l332-274c6-7 14-10 23-11 0 0 0 0 0 0 1-1 2-1 3-1 0 0 1 0 1 0s1 0 2 0c0 0 1 0 2 1 0 0 0 0 0 0 9 1 17 4 23 11l332 274v-362h-718v362z m69 44h580l-290-240-290 240z" horiz-adv-x="1000" />
<glyph glyph-name="glyph-15" unicode="&#xe61e;" d="m938 623c0-21-18-39-40-39h-796c-22 0-39 18-39 39v0c0 22 17 40 39 40h796c22 0 40-18 40-40v0z m-188-179c0-22-17-39-39-39h-609c-22 0-39 17-39 39v0c0 21 17 39 39 39h609c22 0 39-18 39-39v0z m63-188c0-21-18-39-40-39h-671c-22 0-39 18-39 39v0c0 22 17 39 39 39h671c22 0 40-17 40-39v0z m-250-179c0-22-18-39-40-39h-421c-22 0-39 17-39 39v0c0 21 17 39 39 39h421c22 0 40-18 40-39v0z" horiz-adv-x="1000" />
<glyph glyph-name="glyph-16" unicode="&#xe629;" d="m133 311h640l-210-210c-15-15-15-40 0-55s40-15 56 0l276 276c0 0 0 0 0 0 5 5 8 11 10 17 0 0 0 0 0 0 0 1 0 2 1 4 0 0 0 1 0 1 0 1 0 2 0 2 0 1 0 1 0 2 0 1 0 1 0 2s0 1 0 2c0 1 0 1 0 2 0 0 0 1 0 2 0 0 0 1 0 1-1 2-1 3-1 4 0 0 0 0 0 0-2 6-5 12-10 17 0 0 0 0 0 0l-276 276c-16 15-40 15-56 0s-15-40 0-55l210-210h-640c-22 0-39-17-39-39s17-39 39-39z" horiz-adv-x="1000" />
<glyph glyph-name="glyph-17" unicode="&#xe62a;" d="m867 389h-640l210 210c15 15 15 40 0 55s-40 15-55 0l-277-276c0 0 0 0 0 0-4-5-8-11-10-17 0 0 0 0 0 0 0-1 0-2 0-3-1-1-1-2-1-2 0-1 0-2 0-2 0-1 0-1 0-2 0-1 0-1 0-2s0-1 0-2c0 0 0-1 0-2 0 0 0-1 0-2 0 0 0-1 1-1 0-2 0-3 0-4 0 0 0 0 0 0 2-6 6-12 10-17 0 0 0 0 0 0l277-276c15-15 40-15 55 0s15 40 0 55l-210 210h640c22 0 39 17 39 39s-17 39-39 39z" horiz-adv-x="1000" />
<glyph glyph-name="glyph-18" unicode="&#xe652;" d="m904 600c-2 0-4 0-5 0h-797c-2 0-4 0-5 0-20-3-34-19-34-39v-609c0-22 17-40 39-40h797c13 0 25 7 32 18 0 0 0 0 0 0 1 1 1 2 2 3 0 0 0 0 0 0 3 6 5 12 5 19 0 0 0 0 0 0v0 609c0 20-15 36-34 39z m-763-609v531h718v-531h-718z m734 683c0-11-9-19-19-19h-711c-11 0-20 8-20 19v0c0 11 9 20 20 20h711c10 0 19-9 19-20v0z m-62 94c0-11-9-20-20-20h-586c-11 0-19 9-19 20v0c0 11 8 20 19 20h586c11 0 20-9 20-20v0z" horiz-adv-x="1000" />
<glyph glyph-name="wechat" unicode="&#xe801;" d="m324 593q0 23-14 37t-37 14q-24 0-42-15t-19-36q0-22 19-36t42-14q23 0 37 13t14 37z m414-283q0 15-14 28t-36 12q-16 0-28-13t-13-27q0-16 13-28t28-13q22 0 36 12t14 29z m-131 283q0 23-14 37t-37 14q-24 0-42-15t-18-36q0-22 18-36t42-14q23 0 37 13t14 37z m354-283q0 15-15 28t-36 12q-15 0-27-13t-13-27q0-16 13-28t27-13q22 0 36 12t15 29z m-149 221q-17 3-39 3-94 0-173-43t-125-117-45-160q0-44 13-85-20-2-38-2-15 0-28 1t-31 4-25 4-30 6-28 5l-141-70 40 121q-162 114-162 274 0 94 54 173t148 125 203 45q98 0 185-36t146-102 76-146z m331-313q0-65-38-124t-104-108l31-101-111 60q-84-20-122-20-94 0-173 39t-125 107-46 147 46 148 125 106 173 40q90 0 169-40t127-107 48-147z" horiz-adv-x="1142.9" />
<glyph glyph-name="weibo" unicode="&#xe802;" d="m377 134q11 18 6 38t-25 28q-19 8-41 0t-33-25q-13-19-8-38t24-29 42-1 35 27z m52 67q5 7 2 15t-10 10q-7 3-16 0t-12-10q-9-18 8-26 8-2 16 1t12 10z m97-60q-25-57-88-83t-125-7q-60 19-82 71t3 104q27 52 85 78t117 10q62-16 89-66t1-107z m174 90q-5 53-49 94t-117 61-153 12q-124-13-206-79t-74-148q5-53 50-94t116-61 153-12q125 13 206 79t74 148z m172-3q0-38-20-77t-61-77-94-65-126-47-151-17-154 19-134 51-96 85-36 111q0 64 39 137t110 144q94 94 191 131t137-3q36-36 11-117-2-8 0-11t5-4 8 0 8 2l3 1q78 33 138 33t85-34q25-35 0-99-1-8-3-11t3-7 7-5 9-3q32-10 58-26t44-46 19-65z m-41 349q23-27 30-61t-3-66q-5-12-17-19t-25-2q-12 5-19 17t-2 25q11 35-13 61t-60 20q-13-3-25 4t-14 21q-3 14 5 25t20 14q34 7 67-3t56-37z m101 91q48-54 63-125t-8-134q-5-16-19-23t-29-2-22 19-3 29q16 46 6 96t-45 88q-35 39-83 53t-96 5q-16-3-29 6t-17 24 5 29 25 16q68 14 136-6t116-75z" horiz-adv-x="1000" />
<glyph glyph-name="windows" unicode="&#xe803;" d="m381 289v-364l-381 53v311h381z m0 414v-367h-381v315z m548-414v-439l-507 70v369h507z m0 490v-443h-507v373z" horiz-adv-x="928.6" />
</font>
</defs>
</svg>
