<?xml version="1.0"?>
<svg version="1.1" xmlns="http://www.w3.org/2000/svg" xmlns:xlink="http://www.w3.org/1999/xlink" width="353" height="164.509">
    <desc iVinci="yes" version="4.6" gridStep="20" showGrid="no" snapToGrid="no" codePlatform="0"/>
    <g id="Layer1" name="Layer 1" opacity="1">
        <g id="Shape1">
            <desc shapeID="1" type="0" basicInfo-basicType="0" basicInfo-roundedRectRadius="12" basicInfo-polygonSides="6" basicInfo-starPoints="5" bounding="rect(0,0,0,0)" text="" font-familyName="Helvetica" font-pixelSize="20" font-bold="0" font-underline="0" font-alignment="1" strokeStyle="0" markerStart="0" markerEnd="0" shadowEnabled="0" shadowOffsetX="0" shadowOffsetY="2" shadowBlur="4" shadowOpacity="160" blurEnabled="0" blurRadius="4" transform="matrix(1,0,0,1,246.606,-141.561)" pers-center="0,0" pers-size="0,0" pers-start="0,0" pers-end="0,0" locked="0" mesh="" flag=""/>
            <path id="shapePath1" d="M246.606,-141.561 Z" style="stroke:none;fill-rule:evenodd;fill:#ffffff;fill-opacity:1;"/>
        </g>
        <g id="Shape2">
            <desc shapeID="2" type="0" basicInfo-basicType="0" basicInfo-roundedRectRadius="12" basicInfo-polygonSides="6" basicInfo-starPoints="5" bounding="rect(0,0,0,0)" text="" font-familyName="Helvetica" font-pixelSize="20" font-bold="0" font-underline="0" font-alignment="1" strokeStyle="0" markerStart="0" markerEnd="0" shadowEnabled="0" shadowOffsetX="0" shadowOffsetY="2" shadowBlur="4" shadowOpacity="160" blurEnabled="0" blurRadius="4" transform="matrix(1,0,0,1,255.61,-114.549)" pers-center="0,0" pers-size="0,0" pers-start="0,0" pers-end="0,0" locked="0" mesh="" flag=""/>
            <path id="shapePath2" d="M255.61,-114.549 Z" style="stroke:none;fill-rule:evenodd;fill:#ffffff;fill-opacity:1;"/>
        </g>
        <g id="Shape3">
            <desc shapeID="3" type="2" basicInfo-basicType="0" basicInfo-roundedRectRadius="12" basicInfo-polygonSides="6" basicInfo-starPoints="5" bounding="rect(-176.8,-49.4086,353.599,98.8171)" text="丰巢优选" font-familyName="兰亭黑-繁" font-pixelSize="88" font-bold="0" font-underline="0" font-alignment="0" strokeStyle="0" markerStart="0" markerEnd="0" shadowEnabled="0" shadowOffsetX="0" shadowOffsetY="2" shadowBlur="4" shadowOpacity="160" blurEnabled="0" blurRadius="4" transform="matrix(1,0,0,1,176.2,50.6601)" pers-center="0,0" pers-size="0,0" pers-start="0,0" pers-end="0,0" locked="0" mesh="" flag=""/>
            <path id="shapePath3" d="M40.5871,44.9257 C37.7711,44.9257 35.1751,44.9404 32.7991,44.9697 C30.4231,44.9991 28.1791,45.0284 26.0671,45.0577 C23.9551,45.0871 21.9018,45.1457 19.9071,45.2337 C17.9125,45.3217 15.8591,45.4244 13.7471,45.5417 L13.7471,39.5577 C15.8591,39.6751 17.9125,39.7777 19.9071,39.8657 C21.9018,39.9537 23.9698,40.0124 26.1111,40.0417 C28.2525,40.0711 30.4965,40.1004 32.8431,40.1297 C35.1898,40.1591 37.7711,40.1737 40.5871,40.1737 L40.5871,26.2697 C37.3018,26.2697 34.2218,26.2844 31.3471,26.3137 C28.4725,26.3431 25.7445,26.3871 23.1631,26.4457 C20.5818,26.5044 18.0885,26.5777 15.6831,26.6657 C13.2778,26.7537 10.9018,26.8564 8.55511,26.9737 L8.55511,20.7257 C10.9018,20.8431 13.2778,20.9457 15.6831,21.0337 C18.0885,21.1217 20.5818,21.1951 23.1631,21.2537 C25.7445,21.3124 28.4725,21.3564 31.3471,21.3857 C34.2218,21.4151 37.3018,21.4297 40.5871,21.4297 C40.5285,17.9097 40.4405,14.7711 40.3231,12.0137 C40.2058,9.25639 40.0885,7.46706 39.9711,6.64573 C41.0271,6.93906 42.2298,7.15906 43.5791,7.30573 C44.9285,7.45239 46.2191,7.52572 47.4511,7.52572 C48.3311,7.52572 48.8591,7.76039 49.0351,8.22972 C49.2111,8.69906 48.8591,9.19772 47.9791,9.72572 C47.3338,10.0777 46.8791,10.5764 46.6151,11.2217 C46.3511,11.8671 46.2191,12.6004 46.2191,13.4217 L46.2191,21.4297 C50.3258,21.4297 53.8605,21.4151 56.8231,21.3857 C59.7858,21.3564 62.4698,21.3271 64.8751,21.2977 C67.2805,21.2684 69.5391,21.2097 71.6511,21.1217 C73.7631,21.0337 76.0218,20.9017 78.4271,20.7257 L78.4271,26.9737 C76.0218,26.7977 73.7631,26.6657 71.6511,26.5777 C69.5391,26.4897 67.2805,26.4311 64.8751,26.4017 C62.4698,26.3724 59.7858,26.3431 56.8231,26.3137 C53.8605,26.2844 50.3258,26.2697 46.2191,26.2697 L46.2191,40.1737 C49.7978,40.1737 52.8338,40.1737 55.3271,40.1737 C57.8205,40.1737 60.0645,40.1444 62.0591,40.0857 C64.0538,40.0271 65.9458,39.9537 67.7351,39.8657 C69.5245,39.7777 71.4751,39.6751 73.5871,39.5577 L73.5871,45.5417 C71.4751,45.4244 69.5245,45.3217 67.7351,45.2337 C65.9458,45.1457 64.0538,45.0871 62.0591,45.0577 C60.0645,45.0284 57.8205,44.9991 55.3271,44.9697 C52.8338,44.9404 49.7978,44.9257 46.2191,44.9257 L46.2191,59.0057 C50.7951,59.0057 54.7405,58.9911 58.0551,58.9617 C61.3698,58.9324 64.3765,58.9031 67.0751,58.8737 C69.7738,58.8444 72.3111,58.7857 74.6871,58.6977 C77.0631,58.6097 79.5711,58.4777 82.2111,58.3017 L82.2111,64.5497 C79.5711,64.3737 77.0631,64.2417 74.6871,64.1537 C72.3111,64.0657 69.7738,64.0071 67.0751,63.9777 C64.3765,63.9484 61.3698,63.9191 58.0551,63.8897 C54.7405,63.8604 50.7951,63.8457 46.2191,63.8457 L46.2191,72.2937 C46.2191,74.3471 46.2631,76.6351 46.3511,79.1577 C46.4391,81.6804 46.5418,84.1737 46.6591,86.6377 L40.0591,86.6377 C40.1765,84.2324 40.2938,81.7537 40.4111,79.2017 C40.5285,76.6497 40.5871,74.3471 40.5871,72.2937 L40.5871,63.8457 C36.8911,63.8457 33.4445,63.8604 30.2471,63.8897 C27.0498,63.9191 23.9845,63.9631 21.0511,64.0217 C18.1178,64.0804 15.3018,64.1537 12.6031,64.2417 C9.90445,64.3297 7.23512,64.4324 4.59512,64.5497 L4.59512,58.3017 C7.23512,58.4191 9.90445,58.5217 12.6031,58.6097 C15.3018,58.6977 18.1178,58.7711 21.0511,58.8297 C23.9845,58.8884 27.0498,58.9324 30.2471,58.9617 C33.4445,58.9911 36.8911,59.0057 40.5871,59.0057 L40.5871,44.9257 M134.219,52.1417 L155.867,52.1417 L155.867,45.3657 L134.219,45.3657 L134.219,52.1417 M129.027,45.3657 L107.115,45.3657 L107.115,52.1417 L129.027,52.1417 L129.027,45.3657 M129.027,34.8057 L107.115,34.8057 L107.115,41.6697 L129.027,41.6697 L129.027,34.8057 M134.219,41.6697 L155.867,41.6697 L155.867,34.8057 L134.219,34.8057 L134.219,41.6697 M110.811,31.1977 C109.227,28.8511 107.496,26.8564 105.619,25.2137 C103.742,23.5711 101.395,21.8404 98.5791,20.0217 C101.219,18.0857 103.434,15.9297 105.223,13.5537 C107.012,11.1777 108.376,8.69906 109.315,6.11773 C110.899,7.64306 112.6,8.64039 114.419,9.10972 C115.416,9.40306 115.9,9.76973 115.871,10.2097 C115.842,10.6497 115.328,11.0164 114.331,11.3097 C113.979,11.4271 113.554,11.6324 113.055,11.9257 C112.556,12.2191 111.97,12.6737 111.295,13.2897 C110.62,13.9057 109.828,14.7271 108.919,15.7537 C108.01,16.7804 106.91,18.0857 105.619,19.6697 C107.496,21.0191 109.242,22.3391 110.855,23.6297 C112.468,24.9204 114.302,26.5631 116.355,28.5577 C115.006,29.2031 113.715,30.0831 112.483,31.1977 L134.483,31.1977 C133.251,29.5551 131.711,27.9124 129.863,26.2697 C128.015,24.6271 125.448,22.6617 122.163,20.3737 C124.744,18.0857 126.93,15.7537 128.719,13.3777 C130.508,11.0017 131.843,8.61106 132.723,6.20572 C134.307,7.61372 136.126,8.64039 138.179,9.28572 C139.176,9.57906 139.646,9.93106 139.587,10.3417 C139.528,10.7524 139,11.1337 138.003,11.4857 C137.24,11.7791 136.17,12.5124 134.791,13.6857 C133.412,14.8591 131.374,16.8831 128.675,19.7577 C130.67,21.0484 132.547,22.3391 134.307,23.6297 C136.067,24.9204 137.827,26.3284 139.587,27.8537 C138.12,28.6751 136.8,29.7897 135.627,31.1977 L146.363,31.1977 C148.944,31.1977 151.144,31.1977 152.963,31.1977 C154.782,31.1977 156.366,31.1684 157.715,31.1097 C155.192,27.4724 151.32,23.6884 146.099,19.7577 C148.563,17.6457 150.778,15.4604 152.743,13.2017 C154.708,10.9431 156.219,8.69906 157.275,6.46972 C157.862,7.05639 158.654,7.65772 159.651,8.27372 C160.648,8.88972 161.499,9.31506 162.203,9.54972 C163.2,9.84306 163.67,10.1951 163.611,10.6057 C163.552,11.0164 163.054,11.3391 162.115,11.5737 C161.352,11.7497 160.208,12.4537 158.683,13.6857 C157.158,14.9177 155.163,16.9417 152.699,19.7577 C153.638,20.4031 154.518,21.0337 155.339,21.6497 C156.16,22.2657 156.967,22.8964 157.759,23.5417 C158.551,24.1871 159.387,24.8764 160.267,25.6097 C161.147,26.3431 162.086,27.1497 163.083,28.0297 C161.558,28.9097 160.267,29.9071 159.211,31.0217 L161.323,30.7577 C161.147,32.2831 161.03,34.1311 160.971,36.3017 C160.912,38.4724 160.883,40.8484 160.883,43.4297 C160.883,44.4857 160.898,45.6591 160.927,46.9497 C160.956,48.2404 160.986,49.5017 161.015,50.7337 C161.044,51.9657 161.088,53.0804 161.147,54.0777 C161.206,55.0751 161.264,55.8377 161.323,56.3657 C159.798,56.2484 157.788,56.1604 155.295,56.1017 C152.802,56.0431 149.854,56.0137 146.451,56.0137 L134.219,56.0137 L134.219,61.9097 C137.211,61.9097 140.262,61.8951 143.371,61.8657 C146.48,61.8364 149.575,61.8071 152.655,61.7777 C155.735,61.7484 158.727,61.6897 161.631,61.6017 C164.535,61.5137 167.278,61.4111 169.859,61.2937 L169.859,66.3097 C167.747,66.2511 165.679,66.1924 163.655,66.1337 C161.631,66.0751 159.534,66.0311 157.363,66.0017 C155.192,65.9724 152.934,65.9284 150.587,65.8697 C148.24,65.8111 145.688,65.7817 142.931,65.7817 C146.216,68.9497 150.294,71.6484 155.163,73.8777 C160.032,76.1071 165.576,77.5737 171.795,78.2777 C170.563,79.2751 169.668,80.1551 169.111,80.9177 C168.554,81.6804 168.04,82.6777 167.571,83.9097 C160.707,82.3257 154.943,79.9937 150.279,76.9137 C145.615,73.8337 141.435,70.1231 137.739,65.7817 L134.219,65.7817 L134.219,76.8697 C134.219,78.2191 134.234,79.7151 134.263,81.3577 C134.292,83.0004 134.366,84.7311 134.483,86.5497 L128.587,86.5497 C128.763,84.6724 128.88,82.9271 128.939,81.3137 C128.998,79.7004 129.027,78.2191 129.027,76.8697 L129.027,65.7817 L125.771,65.7817 C122.251,69.7124 118.174,73.1884 113.539,76.2097 C108.904,79.2311 103.067,81.9151 96.0271,84.2617 C95.6751,83.4991 95.0445,82.6337 94.1351,81.6657 C93.2258,80.6977 92.1845,79.9204 91.0111,79.3337 C97.2298,77.9844 102.832,76.1364 107.819,73.7897 C112.806,71.4431 116.883,68.7737 120.051,65.7817 C114.595,65.8404 109.784,65.9137 105.619,66.0017 C101.454,66.0897 97.4058,66.1924 93.4751,66.3097 L93.4751,61.2937 C95.9978,61.4111 98.5205,61.5137 101.043,61.6017 C103.566,61.6897 106.235,61.7484 109.051,61.7777 C111.867,61.8071 114.903,61.8364 118.159,61.8657 C121.415,61.8951 125.038,61.9097 129.027,61.9097 L129.027,56.0137 L117.235,56.0137 C114.243,56.0137 111.398,56.0431 108.699,56.1017 C106,56.1604 103.624,56.2484 101.571,56.3657 C101.688,55.0751 101.806,53.3151 101.923,51.0857 C102.04,48.8564 102.099,46.3044 102.099,43.4297 C102.099,42.3151 102.084,41.1564 102.055,39.9537 C102.026,38.7511 101.982,37.5777 101.923,36.4337 C101.864,35.2897 101.806,34.2191 101.747,33.2217 C101.688,32.2244 101.63,31.4031 101.571,30.7577 C102.803,30.8751 104.138,30.9631 105.575,31.0217 C107.012,31.0804 108.758,31.1391 110.811,31.1977 M246.243,25.6537 C245.07,23.8937 243.442,22.0604 241.359,20.1537 C239.276,18.2471 236.68,16.2084 233.571,14.0377 L236.651,10.4297 C239.467,12.5417 242.004,14.5657 244.263,16.5017 C246.522,18.4377 248.472,20.2271 250.115,21.8697 L246.243,25.6537 M191.067,35.0697 C190.128,36.8884 189.16,38.6631 188.163,40.3937 C187.166,42.1244 186.168,43.7524 185.171,45.2777 C184.467,44.4564 183.514,43.7964 182.311,43.2977 C181.108,42.7991 179.803,42.5791 178.395,42.6377 C181.035,40.1151 183.411,37.3724 185.523,34.4097 C187.635,31.4471 189.542,28.0297 191.243,24.1577 C191.771,22.8671 192.328,21.4444 192.915,19.8897 C193.502,18.3351 194.074,16.7217 194.631,15.0497 C195.188,13.3777 195.702,11.6911 196.171,9.98972 C196.64,8.28839 197.051,6.67506 197.403,5.14972 C198.576,5.85373 199.603,6.38173 200.483,6.73372 C201.363,7.08572 202.214,7.23239 203.035,7.17373 C203.856,7.11506 204.326,7.39372 204.443,8.00972 C204.56,8.62572 204.12,9.28572 203.123,9.98972 C202.478,10.4591 201.554,11.8524 200.351,14.1697 C199.148,16.4871 197.638,19.9044 195.819,24.4217 L195.819,86.8137 L190.099,86.8137 C190.392,84.2911 190.627,81.4017 190.803,78.1457 C190.979,74.8897 191.067,71.6777 191.067,68.5097 L191.067,35.0697 M236.651,72.3817 C236.651,73.7311 236.695,74.8164 236.783,75.6377 C236.871,76.4591 237.179,77.1044 237.707,77.5737 C238.235,78.0431 239.042,78.3657 240.127,78.5417 C241.212,78.7177 242.752,78.7764 244.747,78.7177 C246.859,78.6591 248.502,78.5271 249.675,78.3217 C250.848,78.1164 251.743,77.6617 252.359,76.9577 C252.975,76.2537 253.386,75.2564 253.591,73.9657 C253.796,72.6751 253.958,70.9444 254.075,68.7737 C254.779,69.7711 255.674,70.4751 256.759,70.8857 C257.844,71.2964 259.032,71.4724 260.323,71.4137 C259.678,73.9364 259.047,76.0044 258.431,77.6177 C257.815,79.2311 256.964,80.4924 255.879,81.4017 C254.794,82.3111 253.356,82.9271 251.567,83.2497 C249.778,83.5724 247.358,83.7337 244.307,83.7337 C241.315,83.7337 238.968,83.6017 237.267,83.3377 C235.566,83.0737 234.275,82.6337 233.395,82.0177 C232.515,81.4017 231.958,80.5511 231.723,79.4657 C231.488,78.3804 231.371,77.0457 231.371,75.4617 L231.371,35.5097 L224.419,35.5097 C224.243,40.9657 223.7,45.9524 222.791,50.4697 C221.882,54.9871 220.591,59.1964 218.919,63.0977 C217.247,66.9991 215.164,70.6804 212.671,74.1417 C210.178,77.6031 207.23,80.9764 203.827,84.2617 C203.24,83.0884 202.463,82.1791 201.495,81.5337 C200.527,80.8884 199.104,80.4191 197.227,80.1257 C200.395,78.4244 203.284,76.1951 205.895,73.4377 C208.506,70.6804 210.779,67.4244 212.715,63.6697 C214.651,59.9151 216.191,55.6911 217.335,50.9977 C218.479,46.3044 219.168,41.1417 219.403,35.5097 C214.944,35.5684 211.16,35.6417 208.051,35.7297 C204.942,35.8177 202.096,35.9791 199.515,36.2137 L199.515,30.6697 C202.155,30.9044 205.03,31.0657 208.139,31.1537 C211.248,31.2417 215.032,31.3151 219.491,31.3737 C219.55,28.7337 219.55,26.1671 219.491,23.6737 C219.432,21.1804 219.359,18.8777 219.271,16.7657 C219.183,14.6537 219.08,12.7911 218.963,11.1777 C218.846,9.56439 218.728,8.34706 218.611,7.52572 C220.019,7.93639 221.178,8.18572 222.087,8.27372 C222.996,8.36172 224.126,8.37639 225.475,8.31772 C226.296,8.25906 226.751,8.47906 226.839,8.97772 C226.927,9.47639 226.56,10.0484 225.739,10.6937 C225.563,10.8111 225.416,11.1631 225.299,11.7497 C225.182,12.3364 225.079,13.3924 224.991,14.9177 C224.903,16.4431 224.83,18.5257 224.771,21.1657 C224.712,23.8057 224.654,27.2084 224.595,31.3737 C231.459,31.3737 237.766,31.3297 243.515,31.2417 C249.264,31.1537 253.899,30.9631 257.419,30.6697 L257.419,36.2137 C254.896,36.0377 251.919,35.9057 248.487,35.8177 C245.055,35.7297 241.11,35.6564 236.651,35.5977 L236.651,72.3817 M301.067,24.5977 C300.304,26.5924 299.63,28.2204 299.043,29.4817 C298.456,30.7431 297.752,31.9897 296.931,33.2217 C295.934,32.7524 294.995,32.3857 294.115,32.1217 C293.235,31.8577 292.12,31.6377 290.771,31.4617 C293.059,29.2324 295.01,26.3871 296.623,22.9257 C298.236,19.4644 299.278,15.7391 299.747,11.7497 C300.92,12.2191 301.918,12.5711 302.739,12.8057 C303.56,13.0404 304.47,13.2457 305.467,13.4217 C306.054,13.5391 306.391,13.8764 306.479,14.4337 C306.567,14.9911 306.288,15.4457 305.643,15.7977 C305.232,16.0324 304.734,16.5751 304.147,17.4257 C303.56,18.2764 303.003,19.3764 302.475,20.7257 L315.323,20.7257 C315.323,17.0297 315.264,14.1257 315.147,12.0137 C315.03,9.90173 314.824,7.96572 314.531,6.20572 C316.584,6.79239 318.667,6.99772 320.779,6.82172 C321.776,6.70439 322.334,6.83639 322.451,7.21772 C322.568,7.59906 322.275,8.05372 321.571,8.58172 C321.16,8.87506 320.882,9.31506 320.735,9.90173 C320.588,10.4884 320.515,11.4857 320.515,12.8937 L320.515,20.7257 C325.384,20.7257 329.359,20.6671 332.439,20.5497 C335.519,20.4324 337.88,20.2564 339.523,20.0217 L339.523,25.3897 C338.056,25.2137 335.592,25.0377 332.131,24.8617 C328.67,24.6857 324.798,24.5977 320.515,24.5977 L320.515,37.4457 C323.624,37.4457 326.338,37.4164 328.655,37.3577 C330.972,37.2991 333.011,37.2404 334.771,37.1817 C336.531,37.1231 338.027,37.0497 339.259,36.9617 C340.491,36.8737 341.576,36.7711 342.515,36.6537 L342.515,42.2857 C340.755,41.9924 338.628,41.7871 336.135,41.6697 C333.642,41.5524 330.43,41.4937 326.499,41.4937 L326.499,64.1097 C326.499,65.4591 326.836,66.3977 327.511,66.9257 C328.186,67.4537 329.667,67.7177 331.955,67.7177 C332.952,67.7177 333.803,67.5711 334.507,67.2777 C335.211,66.9844 335.812,66.4857 336.311,65.7817 C336.81,65.0777 337.206,64.1097 337.499,62.8777 C337.792,61.6457 338.027,60.0911 338.203,58.2137 C339.083,59.1524 339.978,59.9004 340.887,60.4577 C341.796,61.0151 342.75,61.4697 343.747,61.8217 C342.867,64.2857 342.031,66.2217 341.239,67.6297 C340.447,69.0377 339.582,70.1084 338.643,70.8417 C337.704,71.5751 336.648,72.0297 335.475,72.2057 C334.302,72.3817 332.894,72.4697 331.251,72.4697 C329.198,72.4697 327.54,72.3671 326.279,72.1617 C325.018,71.9564 324.006,71.6044 323.243,71.1057 C322.48,70.6071 321.967,69.9471 321.703,69.1257 C321.439,68.3044 321.307,67.3071 321.307,66.1337 L321.307,41.4937 L312.067,41.4937 C312.008,44.9551 311.715,48.1671 311.187,51.1297 C310.659,54.0924 309.808,56.8937 308.635,59.5337 C307.462,62.1737 305.936,64.6671 304.059,67.0137 C302.182,69.3604 299.894,71.6191 297.195,73.7897 C296.374,72.6751 295.552,71.8831 294.731,71.4137 C293.91,70.9444 292.736,70.5631 291.211,70.2697 C297.019,67.3951 301.184,63.4497 303.707,58.4337 C306.23,53.4177 307.344,47.7711 307.051,41.4937 C302.768,41.4937 299.336,41.5524 296.755,41.6697 C294.174,41.7871 291.886,41.9924 289.891,42.2857 L289.891,36.6537 C292.003,36.9471 295.142,37.1524 299.307,37.2697 C303.472,37.3871 308.811,37.4457 315.323,37.4457 L315.323,24.5977 L301.067,24.5977 M280.123,39.0297 C278.363,39.0297 276.838,39.0297 275.547,39.0297 C274.256,39.0297 273.142,39.0444 272.203,39.0737 C271.264,39.1031 270.458,39.1471 269.783,39.2057 C269.108,39.2644 268.507,39.3231 267.979,39.3817 L267.979,34.3657 C269.152,34.5417 270.531,34.6884 272.115,34.8057 C273.699,34.9231 275.342,34.9817 277.043,34.9817 C278.627,34.9817 280.24,34.9231 281.883,34.8057 C283.526,34.6884 284.934,34.5417 286.107,34.3657 C285.814,35.5391 285.623,36.9911 285.535,38.7217 C285.447,40.4524 285.403,42.4911 285.403,44.8377 L285.403,71.0617 C286.342,71.2964 287.368,71.6191 288.483,72.0297 C289.598,72.4404 291.006,73.0564 292.707,73.8777 C294.76,74.8164 296.652,75.6377 298.383,76.3417 C300.114,77.0457 301.918,77.6031 303.795,78.0137 C305.672,78.4244 307.799,78.7177 310.175,78.8937 C312.551,79.0697 315.426,79.1284 318.799,79.0697 C322.172,79.0111 326.176,78.8644 330.811,78.6297 C335.446,78.3951 341.019,78.0431 347.531,77.5737 C346.768,78.5711 346.284,79.5977 346.079,80.6537 C345.874,81.7097 345.83,82.7364 345.947,83.7337 C338.907,83.9097 332.864,84.0271 327.819,84.0857 C322.774,84.1444 318.462,84.1151 314.883,83.9977 C311.304,83.8804 308.312,83.6751 305.907,83.3817 C303.502,83.0884 301.419,82.7071 299.659,82.2377 C297.899,81.7684 296.344,81.1964 294.995,80.5217 C293.646,79.8471 292.208,79.0697 290.683,78.1897 C288.747,77.0751 287.06,76.3417 285.623,75.9897 C284.186,75.6377 282.792,75.6671 281.443,76.0777 C280.094,76.4884 278.7,77.2804 277.263,78.4537 C275.826,79.6271 274.168,81.1817 272.291,83.1177 C271.763,82.1791 271.103,81.4017 270.311,80.7857 C269.519,80.1697 268.507,79.5977 267.275,79.0697 C270.619,76.6057 273.303,74.7724 275.327,73.5697 C277.351,72.3671 278.95,71.5604 280.123,71.1497 L280.123,39.0297 M283.027,25.8297 C281.208,22.8377 279.316,20.2271 277.351,17.9977 C275.386,15.7684 273.318,13.7737 271.147,12.0137 L274.931,8.40572 C277.16,10.4004 279.287,12.4684 281.311,14.6097 C283.335,16.7511 285.462,19.2297 287.691,22.0457 L283.027,25.8297 Z" style="stroke:none;fill-rule:nonzero;fill:#ffffff;fill-opacity:1;"/>
        </g>
        <g id="Shape4">
            <desc shapeID="4" type="2" basicInfo-basicType="0" basicInfo-roundedRectRadius="12" basicInfo-polygonSides="6" basicInfo-starPoints="5" bounding="rect(-173.777,-24.0722,347.553,48.1445)" text="幸福和关爱，从早餐开始" font-familyName="翩翩体-简" font-pixelSize="30" font-bold="1" font-underline="0" font-alignment="1" strokeStyle="0" markerStart="0" markerEnd="0" shadowEnabled="0" shadowOffsetX="0" shadowOffsetY="2" shadowBlur="4" shadowOpacity="160" blurEnabled="0" blurRadius="4" transform="matrix(1,0,0,1,175.607,133.36)" pers-center="0,0" pers-size="0,0" pers-start="0,0" pers-end="0,0" locked="0" mesh="" flag=""/>
            <path id="shapePath4" d="M24.7964,129.814 C24.7964,130.054 24.7664,130.264 24.7364,130.474 C24.5264,131.434 24.2264,132.244 23.8064,132.904 C23.5064,133.384 23.1464,133.744 22.7864,134.014 C22.6664,134.134 22.5464,134.224 22.4264,134.284 C21.3764,134.524 20.4164,134.734 19.5764,134.944 C19.4564,134.764 19.3664,134.554 19.3064,134.314 C18.9764,133.534 18.8264,132.934 18.8264,132.514 C18.8264,131.974 18.8564,131.404 18.9764,130.804 C18.9764,130.774 18.9464,130.744 18.9464,130.684 C20.0564,130.444 21.2264,130.144 22.4564,129.844 C23.2364,129.664 24.0164,129.454 24.7364,129.274 C24.7664,129.454 24.7964,129.634 24.7964,129.814 M21.4064,137.134 C21.4364,137.674 21.4664,138.214 21.4664,138.724 L21.4664,140.584 C19.3064,141.094 17.1164,141.544 14.8364,141.964 C14.3264,142.144 13.9064,142.264 13.5464,142.384 C12.9464,142.684 12.6764,143.014 12.6764,143.344 C12.7364,144.154 13.0664,144.574 13.6664,144.574 C13.9964,144.574 14.3864,144.544 14.8364,144.514 C15.1364,144.454 15.6464,144.364 16.3064,144.244 C17.9264,143.854 19.6364,143.434 21.4664,142.954 C21.4664,143.734 21.4364,144.424 21.4364,145.054 C21.4064,146.704 21.3464,148.054 21.2564,149.074 C21.2864,149.674 21.5264,150.004 22.0064,150.004 C22.5764,150.004 22.9364,149.614 23.1164,148.864 C23.2964,147.844 23.4164,146.404 23.4764,144.544 C23.4764,143.884 23.5064,143.194 23.5364,142.414 C27.8864,141.214 30.5864,140.194 31.6664,139.294 C31.9364,139.024 32.0864,138.754 32.0864,138.454 C32.0864,138.334 32.0564,138.244 32.0264,138.184 C31.9064,137.974 31.6964,137.854 31.3964,137.854 C29.5064,138.514 26.8964,139.264 23.5364,140.044 L23.5364,138.724 C23.5364,138.004 23.5064,137.314 23.4764,136.594 C25.3364,136.114 26.8664,135.664 28.1264,135.304 C28.6064,135.064 28.8464,134.794 28.8464,134.434 C28.8464,134.254 28.7564,134.044 28.5764,133.744 C28.3364,133.504 28.0664,133.384 27.8264,133.354 C27.2864,133.354 26.5964,133.444 25.7564,133.564 C25.8164,133.504 25.8764,133.384 25.9664,133.234 C26.6564,131.974 27.0164,130.804 27.0164,129.724 C27.0164,129.364 26.9564,129.034 26.8364,128.674 C29.3264,127.984 30.9764,127.324 31.7864,126.694 C32.0564,126.394 32.2064,126.064 32.2064,125.764 C32.2064,125.674 32.1764,125.584 32.1164,125.464 C31.9964,125.224 31.8164,125.104 31.5164,125.104 C29.2664,125.824 26.1164,126.604 22.0664,127.504 C22.2464,126.664 22.3664,125.674 22.3664,124.504 L22.3664,124.114 C22.6064,124.054 22.8764,123.994 23.1764,123.874 C24.7964,123.364 26.0564,122.824 26.9564,122.254 C27.1964,122.134 27.4064,121.924 27.5264,121.654 C27.5264,121.474 27.5564,121.324 27.5564,121.174 C27.4664,120.844 27.1064,120.664 26.5064,120.664 C24.8264,121.114 23.3564,121.504 22.0364,121.834 C21.8864,121.114 21.6764,120.544 21.3764,120.094 C21.0764,119.404 20.6864,119.044 20.2664,119.014 L19.9964,119.014 C19.5764,119.074 19.2464,119.404 19.0664,119.974 C19.1864,120.274 19.2464,120.484 19.3064,120.664 C19.5464,121.174 19.7864,121.744 19.9664,122.374 C17.5364,122.944 15.9464,123.214 15.2264,123.214 C14.5664,123.304 14.2664,123.664 14.2664,124.294 C14.2664,125.164 14.5964,125.584 15.2564,125.584 C16.8764,125.404 18.5564,125.074 20.3564,124.624 L20.3564,124.864 C20.3564,125.524 20.2964,126.094 20.2364,126.634 C20.1764,127.054 20.1164,127.534 19.9964,128.014 C17.7164,128.494 15.4064,128.974 13.0064,129.394 C12.4664,129.574 12.0464,129.694 11.6864,129.784 C11.0864,130.084 10.8164,130.414 10.8164,130.774 C10.9364,131.584 11.2664,132.004 11.8064,132.004 C12.1664,132.004 12.5564,131.974 13.0064,131.914 C13.3064,131.884 13.8464,131.794 14.5964,131.614 C15.2264,131.494 15.9164,131.374 16.6364,131.194 C16.6364,131.914 16.6664,132.634 16.7264,133.294 C16.8464,134.164 17.1464,134.884 17.6564,135.454 C16.8164,135.694 16.0964,135.934 15.5564,136.144 C15.1664,136.444 14.9864,136.804 14.9864,137.224 C14.9864,137.494 15.0464,137.734 15.1964,137.944 C15.3764,138.244 15.5564,138.394 15.7964,138.424 L16.1264,138.424 C16.3664,138.424 17.4464,138.184 19.3364,137.674 C20.0264,137.524 20.7164,137.344 21.4064,137.134 M56.017,129.184 C57.907,128.284 59.107,127.834 59.617,127.834 C59.347,128.644 58.987,129.484 58.567,130.384 C57.937,130.864 57.217,131.374 56.407,131.854 C56.347,131.374 56.257,130.654 56.077,129.724 C56.047,129.544 56.017,129.364 56.017,129.184 M54.577,132.874 C54.367,132.994 54.247,133.204 54.247,133.444 C54.247,133.804 54.307,134.104 54.457,134.344 C54.607,134.584 54.787,134.704 55.027,134.704 C55.147,134.704 55.267,134.674 55.447,134.584 C56.347,134.224 57.277,133.684 58.297,132.964 C59.137,132.364 59.827,131.764 60.397,131.104 C60.607,130.834 60.727,130.564 60.757,130.264 C60.757,130.144 60.727,130.024 60.697,129.904 C60.757,129.784 60.847,129.634 60.937,129.454 C61.297,128.674 61.507,128.074 61.507,127.624 C61.507,127.024 61.297,126.574 60.907,126.214 C60.607,125.974 60.247,125.824 59.827,125.824 L59.677,125.824 C58.927,125.944 57.577,126.484 55.657,127.384 C55.657,127.324 55.627,127.234 55.597,127.114 C55.447,126.814 55.207,126.574 54.907,126.454 C54.727,126.424 54.547,126.394 54.307,126.394 C54.007,126.394 53.767,126.514 53.587,126.754 C53.407,126.994 53.287,127.204 53.257,127.444 C53.497,128.344 53.827,129.454 54.217,130.804 C54.397,131.584 54.517,132.274 54.577,132.874 M60.997,121.384 C60.997,121.264 60.967,121.114 60.937,120.964 C60.787,120.754 60.577,120.634 60.337,120.604 C60.187,120.604 60.037,120.664 59.887,120.724 C59.737,120.784 59.347,120.964 58.747,121.264 C57.637,121.744 56.437,122.194 55.147,122.614 C54.547,122.794 53.827,123.004 52.987,123.214 C52.627,123.394 52.417,123.664 52.417,124.024 C52.417,124.474 52.477,124.834 52.657,125.074 C52.837,125.374 53.047,125.524 53.347,125.524 C53.467,125.524 53.617,125.494 53.827,125.404 C55.057,125.074 56.377,124.564 57.757,123.904 C58.927,123.364 59.887,122.794 60.637,122.194 C60.847,121.924 60.967,121.654 60.997,121.384 M53.677,139.024 C54.037,138.964 55.057,138.574 56.677,137.884 C56.797,137.824 56.947,137.764 57.127,137.674 C57.127,137.734 57.157,137.794 57.157,137.794 C57.397,138.274 57.547,138.844 57.637,139.504 C57.637,139.684 57.667,139.894 57.697,140.074 C56.617,140.524 55.417,140.974 54.157,141.394 C54.067,141.424 53.977,141.454 53.917,141.454 C53.857,141.214 53.827,140.974 53.827,140.734 C53.767,140.194 53.707,139.624 53.677,139.024 M54.217,143.434 C54.397,143.374 54.577,143.314 54.787,143.254 C55.747,142.894 56.737,142.504 57.727,142.054 C57.667,143.044 57.517,144.034 57.217,145.024 C56.857,145.084 56.587,145.114 56.377,145.174 C55.807,145.294 55.417,145.414 55.237,145.594 C55.087,145.654 54.967,145.744 54.877,145.864 C54.817,145.714 54.727,145.564 54.667,145.384 C54.487,144.814 54.337,144.154 54.217,143.434 M54.787,146.944 C54.787,147.064 54.847,147.184 54.937,147.304 C55.147,147.514 55.357,147.634 55.597,147.664 C55.657,147.664 55.777,147.634 56.017,147.574 C56.377,147.424 56.737,147.304 57.127,147.214 C57.787,146.974 58.447,146.794 59.107,146.644 C59.167,146.764 59.317,146.884 59.557,147.064 C60.157,147.454 60.787,147.664 61.387,147.664 C62.377,147.634 63.097,147.124 63.577,146.134 C63.877,145.474 64.207,144.634 64.507,143.644 C65.107,141.574 65.467,139.354 65.587,137.014 C65.587,135.094 65.107,134.044 64.177,133.924 C62.857,133.924 61.417,134.134 59.857,134.554 C57.037,135.274 54.937,136.024 53.557,136.804 C53.557,136.174 53.167,135.844 52.417,135.844 C51.697,135.874 51.367,136.384 51.367,137.374 C51.367,138.394 51.457,139.714 51.667,141.304 C51.967,143.254 52.297,144.814 52.687,146.044 C53.077,146.824 53.467,147.244 53.827,147.244 C54.247,147.244 54.577,147.124 54.787,146.944 M58.987,144.544 C59.257,143.584 59.437,142.504 59.527,141.274 C59.707,141.214 59.887,141.124 60.097,141.034 C61.027,140.614 61.717,140.194 62.167,139.774 C62.437,139.504 62.587,139.234 62.587,138.964 C62.557,138.784 62.437,138.634 62.197,138.484 C62.017,138.394 61.867,138.334 61.687,138.334 C61.447,138.334 61.057,138.514 60.457,138.814 C60.157,138.994 59.827,139.144 59.497,139.294 C59.467,138.994 59.437,138.664 59.407,138.364 C59.317,137.854 59.197,137.404 59.047,136.984 C60.577,136.474 62.047,136.114 63.487,135.934 L63.487,136.804 C63.487,137.404 63.427,138.064 63.337,138.814 C63.037,140.764 62.557,142.474 61.927,143.974 C61.567,144.724 61.327,145.234 61.147,145.504 L61.117,145.504 C61.207,145.324 61.267,145.114 61.267,144.844 C61.267,144.604 61.117,144.394 60.877,144.274 C60.727,144.214 60.547,144.214 60.367,144.214 C60.247,144.214 60.037,144.274 59.797,144.364 C59.497,144.424 59.227,144.484 58.987,144.544 M41.617,128.374 C40.957,128.554 40.627,128.914 40.597,129.484 C40.597,130.354 41.047,130.774 41.977,130.774 C43.297,130.654 44.617,130.264 45.937,129.634 C44.377,133.174 41.947,138.484 38.677,145.534 C38.557,145.744 38.497,145.924 38.497,146.074 C38.497,146.464 38.737,146.674 39.247,146.704 C39.787,146.704 40.237,146.434 40.537,145.894 C41.917,143.494 43.417,140.584 44.977,137.164 C44.977,137.344 45.007,137.494 45.037,137.674 C45.307,140.224 45.457,142.204 45.457,143.614 C45.457,144.094 45.397,144.664 45.337,145.384 C45.277,145.804 45.247,146.104 45.247,146.344 C45.247,146.914 45.517,147.214 46.117,147.214 C46.537,147.214 46.867,146.794 47.107,145.984 C47.197,145.624 47.287,145.174 47.347,144.574 C47.437,143.854 47.497,143.104 47.497,142.324 C47.497,141.604 47.437,140.794 47.347,139.894 C47.167,138.484 46.987,137.164 46.807,135.964 C46.747,135.754 46.717,135.544 46.687,135.304 C46.957,135.604 47.257,135.904 47.617,136.144 C48.637,136.984 49.417,137.374 49.927,137.374 C50.167,137.374 50.377,137.314 50.557,137.194 C50.677,137.134 50.827,137.014 50.947,136.774 C51.067,136.654 51.157,136.504 51.187,136.324 C51.187,136.024 51.067,135.814 50.827,135.664 C49.837,135.244 48.817,134.404 47.767,133.114 C47.527,132.814 47.287,132.574 47.047,132.394 C47.347,131.674 47.677,130.894 48.037,130.054 C48.307,129.394 48.517,128.824 48.667,128.314 C48.937,127.594 49.087,127.024 49.087,126.664 C48.937,126.184 48.697,125.884 48.397,125.764 C48.217,125.764 47.887,125.944 47.407,126.304 C46.267,127.024 45.097,127.534 43.897,127.894 C43.177,128.194 42.427,128.344 41.617,128.374 M48.097,123.904 C48.577,123.874 48.847,123.574 48.907,123.004 C48.907,122.524 48.697,122.194 48.307,122.014 C46.867,121.594 45.637,121.204 44.587,120.874 C44.047,120.874 43.687,121.084 43.507,121.474 C43.357,121.654 43.297,121.924 43.297,122.254 C43.297,122.674 43.447,122.944 43.747,123.064 C43.987,123.214 44.587,123.394 45.517,123.604 C46.567,123.814 47.437,123.904 48.097,123.904 M73.5276,130.864 C74.3976,129.814 75.4176,128.614 76.6176,127.264 C76.7076,127.144 76.8276,127.024 76.9476,126.904 C76.9476,126.994 76.9476,127.114 77.0076,127.234 C77.0976,127.894 77.1876,128.524 77.2776,129.154 C76.1976,129.664 74.9376,130.234 73.5276,130.864 M78.2076,125.524 C78.5376,125.164 78.9276,124.804 79.3776,124.384 C80.5176,123.274 81.0876,122.404 81.0876,121.774 C81.0876,121.474 80.9376,121.204 80.6976,120.964 C80.3976,120.724 79.9476,120.574 79.3476,120.514 C78.2076,120.364 77.0676,120.274 75.9276,120.274 C75.5076,120.274 75.1476,120.424 74.8776,120.724 C74.6976,120.904 74.6076,121.114 74.6076,121.294 C74.6076,121.894 74.9076,122.254 75.5076,122.404 C77.3676,122.464 78.5376,122.464 79.0176,122.464 C78.8976,122.824 77.8176,124.144 75.8376,126.484 C74.1576,128.344 72.5676,130.024 71.0076,131.554 C70.5276,131.974 70.2576,132.334 70.1676,132.604 C70.1076,132.784 70.0776,132.994 70.0776,133.234 C70.0776,133.684 70.2276,134.014 70.4976,134.224 C70.5876,134.284 70.6776,134.284 70.7376,134.284 C70.9176,134.284 71.2176,134.194 71.5776,134.044 C72.7776,133.564 73.8576,133.054 74.8176,132.544 C75.3276,132.304 75.8376,132.034 76.3776,131.794 C76.2276,132.364 76.0476,132.934 75.8676,133.504 C75.3876,134.794 74.8476,135.994 74.2476,137.104 C73.4676,138.514 72.6876,139.714 71.8776,140.734 C71.6376,140.974 71.5176,141.184 71.5176,141.424 C71.5476,141.784 71.6976,141.964 71.9976,141.964 C72.1476,141.964 72.2976,141.934 72.4776,141.874 C72.6276,141.844 72.7776,141.754 72.8976,141.604 C73.5876,140.884 74.2476,140.074 74.9076,139.144 C75.6276,138.064 76.2576,136.984 76.7676,135.904 C77.0676,135.244 77.3376,134.614 77.5776,133.984 C77.6976,136.864 77.7576,139.894 77.7576,143.104 C77.7876,144.484 77.8176,145.804 77.8176,147.064 C76.8876,146.194 76.0176,145.564 75.2376,145.204 C74.8476,145.234 74.6676,145.474 74.6676,145.924 C74.7276,146.164 74.8476,146.434 74.9976,146.704 C75.8976,148.384 77.0676,149.254 78.4476,149.254 C78.9276,149.254 79.1976,148.864 79.2576,148.084 C79.2876,146.224 79.3176,142.174 79.3176,135.904 L79.3176,133.804 C80.1876,134.944 81.0276,136.174 81.8376,137.524 C82.3776,138.424 82.8276,139.114 83.1876,139.594 C83.4576,139.924 83.7276,140.074 83.9976,140.074 C84.4776,140.074 84.7476,139.774 84.7476,139.174 C84.6876,138.574 84.4476,137.914 84.0276,137.194 C82.4076,134.284 81.1776,132.484 80.3976,131.794 C80.2776,131.734 80.1276,131.644 79.9776,131.584 C79.8576,131.584 79.7376,131.554 79.6476,131.554 C79.5276,131.584 79.3776,131.644 79.2576,131.734 C79.2576,131.314 79.2276,130.864 79.2276,130.444 C80.4276,129.814 81.4476,129.244 82.2276,128.734 C82.8576,128.314 83.2776,127.924 83.5176,127.564 C83.5776,127.444 83.6076,127.324 83.6076,127.144 C83.6076,126.934 83.4276,126.694 83.1276,126.454 C82.9476,126.334 82.7676,126.244 82.5276,126.244 C82.4076,126.244 82.0476,126.484 81.4476,126.904 C80.9076,127.264 80.0976,127.714 79.0776,128.254 C79.0776,128.104 79.0476,127.924 79.0476,127.744 C78.9576,127.204 78.8376,126.694 78.7176,126.214 C78.5976,125.914 78.4176,125.704 78.2076,125.524 M95.1576,135.544 C95.3976,135.184 95.6376,134.794 95.8776,134.344 C96.2976,133.504 96.5076,132.844 96.5076,132.304 C96.5076,131.764 96.3876,131.344 96.1776,130.984 C95.8776,130.504 95.3976,130.084 94.7676,129.754 C94.0176,129.454 93.0576,129.274 91.8576,129.274 C91.1676,129.274 90.5076,129.334 89.9076,129.424 C89.2176,129.604 88.7376,129.724 88.4676,129.814 C88.4076,129.874 88.3776,129.904 88.3176,129.934 C88.2576,129.574 88.1976,129.304 88.1376,129.064 C87.9576,128.734 87.7476,128.494 87.4476,128.374 C87.2676,128.344 87.0576,128.314 86.7876,128.314 C86.4876,128.314 86.2776,128.434 86.0976,128.674 C85.8876,128.914 85.7676,129.154 85.7376,129.394 C86.0676,130.864 86.4576,132.724 86.9076,135.004 C87.2076,136.564 87.3876,137.884 87.4476,138.904 C87.4476,138.964 87.4476,139.024 87.4776,139.084 C87.4476,139.144 87.4476,139.204 87.4476,139.294 C87.4476,139.744 87.5076,140.074 87.6276,140.314 C87.8076,140.584 88.0476,140.704 88.2876,140.704 C88.3776,140.704 88.5276,140.674 88.7376,140.584 C89.8476,140.194 91.0176,139.594 92.2776,138.814 C93.2976,138.184 94.1676,137.494 94.8576,136.774 C95.0676,136.504 95.1876,136.234 95.2176,135.934 C95.2176,135.814 95.1876,135.664 95.1576,135.544 M89.2776,138.034 C89.2176,137.134 89.0676,135.574 88.7676,133.414 C88.7076,132.904 88.6476,132.424 88.6176,131.974 C88.6776,132.004 88.7976,132.004 88.9476,132.004 C90.0876,131.584 91.1076,131.374 92.0076,131.374 C93.5076,131.374 94.2876,131.854 94.2876,132.814 C94.2876,133.054 94.1376,133.504 93.8376,134.134 C93.4776,134.854 93.0576,135.574 92.5776,136.234 C91.7376,136.774 90.8376,137.284 89.8476,137.794 C89.6676,137.854 89.4576,137.944 89.2776,138.034 M111.228,125.854 C111.228,125.524 111.018,125.284 110.598,125.104 C109.758,124.624 109.188,123.634 108.828,122.104 C108.648,121.744 108.378,121.564 107.958,121.564 C107.208,121.654 106.818,122.074 106.818,122.854 C106.818,122.974 106.878,123.214 106.998,123.514 C107.238,124.174 107.538,124.774 107.898,125.254 C108.228,125.764 108.648,126.154 109.158,126.394 C109.578,126.634 109.938,126.754 110.268,126.754 C110.508,126.754 110.748,126.664 110.988,126.484 C111.138,126.334 111.228,126.124 111.228,125.854 M116.838,119.824 C116.838,119.944 116.838,120.064 116.868,120.154 C116.898,120.454 116.928,120.724 116.928,120.964 C116.928,121.654 116.718,122.284 116.358,122.884 C115.938,123.454 115.398,124.114 114.708,124.894 C114.258,125.434 113.808,125.854 113.388,126.214 C113.028,126.514 112.728,126.784 112.458,126.964 C112.338,127.024 112.248,127.054 112.128,127.054 C110.178,127.564 108.378,127.804 106.728,127.804 C106.428,127.804 106.158,127.804 105.918,127.774 C105.378,128.074 105.048,128.434 104.928,128.824 L104.928,129.334 C104.928,129.934 105.228,130.264 105.828,130.354 L106.578,130.354 C107.418,130.354 108.258,130.264 109.098,130.144 C110.058,129.964 111.048,129.784 112.038,129.544 C112.068,130.204 112.098,130.834 112.128,131.434 L112.128,134.794 C109.518,135.424 106.848,135.994 104.118,136.474 C103.578,136.624 103.128,136.744 102.828,136.864 C102.228,137.194 101.928,137.524 101.928,137.854 C102.018,138.694 102.348,139.114 102.918,139.114 C103.248,139.114 103.638,139.084 104.118,139.024 C104.478,138.964 105.108,138.844 105.978,138.694 C107.898,138.274 109.938,137.794 112.038,137.254 C111.678,140.554 110.388,143.194 108.138,145.174 C107.238,146.044 106.008,146.854 104.448,147.634 C103.938,148.204 103.698,148.564 103.698,148.744 C103.698,149.254 103.968,149.524 104.568,149.584 C105.108,149.584 105.678,149.314 106.218,148.834 C107.448,148.234 108.528,147.484 109.488,146.644 C111.828,144.574 113.298,142.054 113.928,139.054 C114.918,140.884 116.358,142.714 118.218,144.514 C119.178,145.474 120.198,146.404 121.278,147.364 C122.058,148.084 122.838,148.834 123.648,149.584 C123.918,149.854 124.188,150.004 124.488,150.004 C124.848,149.914 125.028,149.674 125.058,149.254 C125.058,148.924 124.968,148.564 124.818,148.174 C124.338,147.484 123.798,146.824 123.198,146.194 C122.238,145.294 121.608,144.724 121.308,144.454 C120.198,143.464 119.238,142.504 118.398,141.544 C117.558,140.644 116.748,139.534 115.938,138.214 C115.518,137.494 115.098,136.984 114.678,136.624 C114.798,136.624 114.948,136.594 115.068,136.534 C120.888,135.034 124.518,133.744 125.928,132.664 C126.198,132.394 126.348,132.124 126.348,131.824 C126.348,131.704 126.318,131.584 126.288,131.524 C126.138,131.314 125.928,131.194 125.688,131.194 C123.018,132.094 119.268,133.114 114.468,134.254 C114.438,134.254 114.408,134.284 114.348,134.284 L114.348,131.194 C114.348,130.354 114.288,129.604 114.198,129.004 C114.438,128.944 114.678,128.884 114.978,128.764 C116.988,128.284 118.728,127.714 120.228,127.054 C120.588,126.904 120.918,126.664 121.158,126.334 C121.338,126.034 121.428,125.794 121.428,125.614 C121.428,125.374 121.218,125.134 120.798,124.864 C120.438,124.684 120.078,124.594 119.778,124.594 C119.538,124.714 119.238,124.864 118.878,124.984 C117.918,125.344 117.018,125.674 116.118,125.944 C116.838,125.344 117.498,124.684 118.128,123.904 C118.878,122.944 119.268,121.954 119.268,120.934 C119.268,120.334 119.118,119.794 118.818,119.374 C118.638,119.104 118.278,118.954 117.768,118.954 C117.138,118.984 116.838,119.284 116.838,119.824 M136.959,131.254 L136.959,131.134 C137.199,131.134 137.529,131.104 137.889,131.044 C145.569,129.844 150.369,129.154 152.259,128.974 C151.779,129.514 151.239,130.054 150.639,130.594 C150.339,130.834 150.189,131.104 150.189,131.344 C150.189,131.524 150.249,131.674 150.399,131.854 C150.519,132.124 150.729,132.244 150.999,132.244 C151.239,132.244 151.509,132.124 151.839,131.854 C152.079,131.704 152.289,131.524 152.529,131.344 C154.389,129.844 155.319,128.674 155.319,127.774 C155.319,127.294 155.079,126.964 154.629,126.754 C154.449,126.724 154.239,126.694 154.029,126.694 C153.009,126.694 151.269,126.874 148.869,127.234 C143.709,127.894 139.779,128.464 137.139,128.914 C136.929,128.974 136.689,129.004 136.449,129.064 C136.329,128.764 136.149,128.494 135.969,128.314 C135.789,128.164 135.519,128.074 135.219,128.074 C134.919,128.104 134.709,128.194 134.559,128.314 C134.259,128.554 134.139,128.884 134.139,129.334 C134.139,129.454 134.199,129.634 134.379,129.874 C134.619,130.354 134.769,130.984 134.769,131.764 C134.769,132.184 134.709,132.634 134.589,133.084 C134.379,133.684 134.109,134.254 133.809,134.794 C133.629,135.094 133.509,135.364 133.509,135.544 C133.509,136.024 133.719,136.264 134.169,136.294 C134.619,136.294 134.949,136.144 135.129,135.844 C135.369,135.664 135.579,135.424 135.759,135.124 C136.059,134.614 136.329,134.074 136.539,133.504 C136.809,132.664 136.959,131.914 136.959,131.254 M151.149,120.544 C151.419,120.454 151.629,120.304 151.809,120.064 C151.959,119.824 152.049,119.614 152.049,119.434 C152.049,119.254 151.869,119.074 151.569,118.894 C151.269,118.774 150.999,118.714 150.759,118.714 C150.489,118.804 150.159,118.894 149.769,118.984 C147.129,119.764 144.669,120.304 142.359,120.664 C140.199,121.084 138.219,121.264 136.389,121.264 C136.119,121.264 135.879,121.264 135.669,121.234 C135.129,121.534 134.799,121.864 134.679,122.254 L134.679,122.794 C134.679,123.394 134.979,123.724 135.579,123.814 L136.659,123.814 C136.899,124.204 137.109,124.534 137.289,124.834 C137.769,125.914 138.249,126.664 138.789,127.084 C138.999,127.534 139.269,127.744 139.599,127.744 C139.839,127.744 140.079,127.594 140.289,127.354 C140.439,127.174 140.529,127.024 140.529,126.844 C140.469,126.664 140.409,126.394 140.349,126.094 C139.989,125.104 139.599,124.264 139.119,123.604 C140.109,123.454 141.099,123.274 142.089,123.034 C142.689,123.664 143.049,124.264 143.169,124.864 C143.229,125.824 143.349,126.394 143.469,126.634 C143.529,126.814 143.649,126.934 143.769,126.994 C143.829,127.054 143.949,127.084 144.129,127.084 C144.309,127.084 144.459,127.084 144.579,127.054 C144.789,126.994 144.909,126.784 144.969,126.484 C145.029,125.914 145.089,125.374 145.089,124.864 C145.089,123.964 144.819,123.184 144.339,122.554 C144.699,122.494 145.059,122.374 145.449,122.254 C146.709,121.954 147.939,121.654 149.079,121.294 C149.079,121.384 149.079,121.474 149.109,121.594 C149.169,121.924 149.229,122.194 149.229,122.404 C149.229,122.854 149.019,123.334 148.659,123.844 C147.669,125.104 147.189,125.974 147.189,126.454 C147.189,126.634 147.249,126.784 147.399,126.844 C147.459,126.904 147.519,126.904 147.639,126.904 C147.759,126.904 147.909,126.844 148.029,126.694 C148.269,126.574 148.629,126.274 149.169,125.794 C150.039,124.954 150.669,124.114 151.089,123.274 C151.329,122.704 151.449,122.104 151.449,121.444 C151.449,121.084 151.329,120.784 151.149,120.544 M135.759,147.904 C136.119,147.604 136.599,147.154 137.169,146.584 C138.009,145.654 138.789,144.724 139.449,143.824 C140.229,144.274 141.039,144.754 141.819,145.234 C142.359,145.534 142.929,145.864 143.559,146.194 C142.779,146.914 141.909,147.664 140.979,148.384 C140.829,148.564 140.769,148.744 140.769,148.894 C140.799,149.464 141.039,149.764 141.489,149.824 C141.849,149.824 142.149,149.734 142.449,149.584 C143.169,149.164 143.949,148.624 144.819,147.904 C145.059,147.694 145.299,147.454 145.599,147.184 C146.139,147.424 146.679,147.694 147.279,147.934 C149.079,148.654 150.729,149.194 152.259,149.614 C153.069,149.824 153.969,149.974 154.929,150.094 C155.679,150.184 156.369,150.244 156.999,150.244 C157.329,150.244 157.539,150.154 157.659,150.004 C157.839,149.824 157.959,149.614 157.959,149.314 C157.959,148.984 157.809,148.774 157.539,148.714 C155.319,148.294 153.279,147.754 151.479,147.154 C149.979,146.614 148.599,146.014 147.279,145.384 C147.519,145.084 147.789,144.784 148.089,144.424 C149.619,142.354 150.399,140.794 150.459,139.774 C150.429,138.754 149.949,138.184 149.019,138.004 C147.729,138.004 146.169,138.184 144.369,138.544 C143.469,138.724 142.689,138.934 142.029,139.144 C142.329,138.334 142.599,137.494 142.809,136.594 C143.589,136.444 144.399,136.264 145.179,136.054 C146.919,135.664 148.449,135.244 149.739,134.764 C150.099,134.644 150.339,134.434 150.519,134.164 C150.669,133.924 150.759,133.714 150.759,133.534 C150.759,133.324 150.579,133.114 150.249,132.904 C149.919,132.754 149.619,132.664 149.379,132.664 C149.169,132.724 148.899,132.814 148.599,132.934 C146.709,133.474 144.909,133.864 143.169,134.164 C143.169,134.044 143.199,133.894 143.199,133.774 L143.199,132.784 C143.139,132.214 142.779,131.914 142.119,131.914 C141.279,131.914 140.889,132.274 140.889,132.994 L140.889,133.894 C140.859,134.104 140.829,134.314 140.829,134.524 C139.839,134.644 138.909,134.674 138.009,134.674 C137.739,134.674 137.499,134.674 137.259,134.644 C136.689,134.944 136.359,135.304 136.269,135.664 L136.269,136.204 C136.269,136.804 136.569,137.134 137.169,137.224 L137.829,137.224 C138.549,137.224 139.269,137.164 140.019,137.074 C140.139,137.074 140.259,137.044 140.409,137.014 C140.169,138.094 139.779,139.174 139.269,140.194 C138.309,141.994 137.289,143.524 136.209,144.844 C135.639,145.504 135.189,146.134 134.829,146.734 C134.559,147.154 134.439,147.454 134.439,147.694 C134.439,148.114 134.559,148.324 134.859,148.324 C135.099,148.294 135.399,148.144 135.759,147.904 M145.329,144.394 C144.729,144.064 144.099,143.704 143.469,143.314 C142.749,142.924 142.059,142.504 141.399,142.024 C141.189,141.934 141.009,141.814 140.859,141.694 C144.519,140.734 146.949,140.224 148.179,140.224 C147.429,141.664 146.469,143.074 145.329,144.394 M168.24,143.644 C168.24,142.774 167.789,142.324 166.919,142.324 C165.779,142.324 165.119,143.374 164.939,145.444 C164.16,146.854 163.259,148.114 162.27,149.224 C161.999,149.494 161.88,149.824 161.88,150.184 C161.88,150.964 162.24,151.354 162.959,151.354 C163.349,151.354 163.679,151.204 163.979,150.904 C164.88,149.974 165.719,148.864 166.499,147.574 C167.639,145.654 168.24,144.334 168.24,143.644 M198.95,136.624 C199.79,137.464 200.6,138.394 201.38,139.384 C201.92,140.104 202.37,140.674 202.73,141.034 C203.03,141.364 203.3,141.514 203.54,141.514 C204.02,141.514 204.29,141.214 204.29,140.584 C204.23,140.104 203.99,139.594 203.57,139.024 C201.92,136.624 200.69,135.154 199.91,134.584 C199.88,134.584 199.85,134.554 199.82,134.554 C200.54,132.514 200.9,130.564 200.9,128.734 C200.9,127.774 200.75,126.754 200.45,125.704 C200.18,124.864 199.82,124.114 199.4,123.484 C199.22,123.184 199.01,122.944 198.77,122.824 C198.62,122.704 198.44,122.644 198.2,122.584 L197.87,122.584 C197.3,122.764 197.03,123.154 197.03,123.754 C197.03,123.994 197.21,124.294 197.57,124.714 C198.35,125.974 198.74,127.414 198.74,128.974 C198.74,130.354 198.47,131.884 197.93,133.624 C197.21,135.484 196.49,137.164 195.77,138.664 C194.87,140.434 193.91,141.934 192.95,143.194 C192.74,143.494 192.65,143.704 192.65,143.824 C192.65,144.364 192.92,144.664 193.46,144.664 C193.82,144.664 194.09,144.544 194.27,144.304 C194.93,143.584 195.62,142.654 196.34,141.514 C197.33,139.984 198.17,138.424 198.86,136.864 C198.89,136.804 198.92,136.744 198.95,136.624 M219.35,147.214 L219.8,147.214 C220.28,147.124 220.52,146.884 220.58,146.464 C220.58,146.104 220.46,145.894 220.22,145.774 C219.11,145.144 218.21,144.544 217.49,143.974 C216.14,142.924 214.73,141.454 213.26,139.564 L211.19,136.924 C210.89,136.534 210.62,136.234 210.44,136.054 C210.29,135.994 210.11,135.934 209.93,135.904 C209.99,135.754 210.08,135.574 210.14,135.394 C210.71,133.954 211.22,132.334 211.7,130.594 C212.15,128.794 212.39,126.724 212.39,124.384 C212.33,122.824 211.97,121.684 211.31,120.994 C211.1,120.664 210.83,120.484 210.5,120.424 C210.2,120.424 209.96,120.454 209.78,120.484 C209.27,120.664 209,121.054 209,121.624 C209.06,121.954 209.12,122.164 209.24,122.284 C209.78,123.304 210.08,124.564 210.08,126.064 C210.08,127.504 209.93,128.914 209.63,130.234 C209.15,132.034 208.61,133.684 207.98,135.184 C206.36,139.174 204.26,142.834 201.68,146.194 C201.38,146.554 201.23,146.854 201.23,147.064 C201.23,147.214 201.29,147.364 201.47,147.544 C201.59,147.664 201.8,147.754 202.04,147.754 C202.28,147.754 202.52,147.634 202.76,147.454 C203.54,146.674 204.59,145.384 205.85,143.554 C207.05,141.784 208.13,139.894 209.06,137.884 C209.24,138.184 209.48,138.514 209.81,138.904 L212.12,141.634 C213.47,143.194 214.73,144.394 215.93,145.354 C217.34,146.494 218.48,147.124 219.35,147.214 M241.391,126.064 C241.781,125.824 241.991,125.584 241.991,125.344 C241.991,125.194 241.931,124.984 241.811,124.714 C241.571,124.534 241.361,124.444 241.151,124.414 C240.731,124.414 240.161,124.474 239.471,124.564 C237.011,125.014 235.121,125.374 233.861,125.674 C233.831,125.254 233.801,124.864 233.801,124.474 C233.741,124.024 233.681,123.574 233.621,123.154 C236.441,122.404 238.961,122.014 241.181,122.014 C242.441,122.014 243.071,122.404 243.071,123.184 C243.071,123.604 243.011,124.204 242.921,124.984 C242.741,126.154 242.411,127.384 241.931,128.644 C241.841,128.704 241.721,128.764 241.571,128.854 C240.041,129.454 238.661,129.874 237.401,130.144 C236.171,130.444 235.061,130.594 234.041,130.594 L233.831,130.594 C233.861,129.364 233.891,128.404 233.891,127.714 C234.251,127.654 234.761,127.564 235.451,127.384 C238.031,126.844 240.011,126.394 241.391,126.064 M233.231,120.874 C233.171,120.694 233.081,120.544 232.991,120.424 C232.811,120.214 232.601,120.094 232.301,120.094 C232.031,120.094 231.791,120.154 231.581,120.274 C231.161,120.484 230.981,120.814 230.981,121.264 C231.341,122.404 231.551,123.484 231.581,124.504 C231.611,125.284 231.641,126.274 231.641,127.534 C231.641,127.954 231.611,128.794 231.581,130.054 C231.551,130.954 231.551,131.674 231.551,132.214 C231.551,133.054 231.881,133.444 232.541,133.444 C232.961,133.444 233.291,133.234 233.531,132.754 L233.801,132.754 C234.311,132.754 234.851,132.694 235.421,132.634 C236.741,132.454 237.971,132.214 239.171,131.884 C240.431,131.584 241.541,131.284 242.501,130.924 C242.861,130.744 243.161,130.534 243.371,130.234 C243.551,129.964 243.671,129.724 243.671,129.514 C243.671,129.454 243.641,129.394 243.611,129.334 C244.031,128.434 244.391,127.474 244.661,126.514 C244.931,125.494 245.081,124.444 245.111,123.394 C245.111,122.824 244.991,122.314 244.811,121.834 C244.511,121.204 244.061,120.754 243.461,120.454 C242.711,120.064 241.841,119.854 240.881,119.854 C239.321,119.854 237.821,119.974 236.321,120.214 C235.151,120.394 234.131,120.634 233.231,120.874 M249.821,135.454 C249.821,135.334 249.791,135.214 249.761,135.154 C249.641,134.974 249.431,134.854 249.161,134.854 C246.701,135.454 243.371,136.084 239.111,136.804 C239.111,135.814 239.141,134.914 239.141,134.104 C239.141,133.444 238.841,133.084 238.241,133.024 L237.851,133.024 C237.251,133.084 236.951,133.444 236.951,134.104 C236.921,135.274 236.921,136.294 236.921,137.194 C233.861,137.734 230.681,138.244 227.411,138.664 C226.871,138.814 226.481,138.934 226.181,139.054 C225.611,139.324 225.341,139.624 225.341,139.984 C225.401,140.764 225.731,141.154 226.301,141.154 C226.601,141.154 226.961,141.124 227.411,141.064 C227.771,141.034 228.371,140.944 229.271,140.794 C231.671,140.434 234.191,139.984 236.891,139.504 C236.861,140.494 236.831,141.064 236.831,141.184 C236.771,143.944 236.711,145.894 236.591,147.124 C236.531,147.514 236.471,147.934 236.411,148.384 C236.261,148.504 236.201,148.684 236.201,148.894 C236.201,149.314 236.471,149.554 237.011,149.554 C237.401,149.554 237.791,149.284 238.211,148.744 C238.391,148.114 238.541,147.364 238.661,146.524 C238.781,145.714 238.871,144.664 238.931,143.344 C238.961,141.844 238.991,140.404 239.051,139.084 C244.571,138.034 248.021,137.104 249.401,136.324 C249.671,136.024 249.821,135.754 249.821,135.454 M260.131,125.404 C260.431,124.624 260.581,123.784 260.581,122.914 C260.521,122.584 260.341,122.404 260.011,122.344 C259.351,122.344 258.961,122.614 258.811,123.154 L258.781,124.144 C258.721,125.224 258.241,126.244 257.341,127.234 C257.341,127.774 257.581,128.044 258.061,128.044 C258.301,128.044 258.601,127.924 259.021,127.744 C259.141,128.044 259.411,128.434 259.891,128.944 C260.341,129.424 260.821,129.754 261.361,129.874 C260.611,130.744 259.711,131.494 258.661,132.154 C258.391,132.394 258.271,132.544 258.271,132.664 C258.271,133.024 258.451,133.234 258.811,133.294 L259.081,133.294 C259.561,133.204 260.101,132.934 260.701,132.484 C263.851,130.474 265.591,127.654 265.891,124.024 C265.891,123.454 265.621,123.124 265.081,123.034 C264.601,123.034 264.031,123.154 263.431,123.364 C263.461,122.914 263.491,122.434 263.521,121.894 C264.181,121.774 264.901,121.534 265.651,121.174 C266.311,120.904 266.881,120.604 267.331,120.274 C267.481,120.094 267.571,119.884 267.601,119.644 C267.601,119.524 267.571,119.404 267.541,119.314 C267.421,119.134 267.271,119.014 267.031,118.984 C266.911,118.984 266.821,119.044 266.701,119.104 C266.611,119.134 266.401,119.224 266.071,119.344 C265.411,119.584 264.721,119.824 263.971,120.034 C263.821,120.094 263.641,120.124 263.401,120.154 C263.311,119.674 263.161,119.284 262.921,118.954 C262.741,118.714 262.531,118.564 262.291,118.564 C261.661,118.624 261.331,118.864 261.301,119.344 C261.631,120.664 261.811,121.744 261.811,122.584 C261.811,123.124 261.781,123.664 261.781,124.174 C261.751,124.204 261.721,124.234 261.691,124.234 C261.091,124.684 260.581,125.074 260.131,125.404 M260.191,127.114 C261.181,126.544 262.501,125.644 264.121,124.414 C263.701,126.094 263.041,127.594 262.171,128.884 C261.331,128.104 260.671,127.534 260.191,127.114 M265.951,135.754 C265.951,135.694 265.921,135.664 265.921,135.634 C267.331,135.214 269.161,134.734 271.441,134.134 C271.261,134.734 271.051,135.364 270.871,136.024 C270.451,136.084 269.641,136.294 268.381,136.654 C267.301,137.014 266.431,137.344 265.831,137.614 C265.861,137.044 265.891,136.414 265.951,135.754 M263.851,136.294 C263.851,136.534 263.881,136.744 263.881,136.924 C263.851,138.694 263.761,140.794 263.611,143.254 C263.491,145.144 263.431,146.914 263.431,148.534 C263.461,149.644 263.851,150.214 264.601,150.214 C265.171,150.214 265.771,150.034 266.401,149.734 C267.181,149.284 267.871,148.744 268.441,148.144 C268.741,147.784 268.921,147.454 268.921,147.184 C268.921,146.854 268.801,146.674 268.591,146.644 C268.411,146.644 268.231,146.704 268.111,146.884 C267.091,147.394 266.131,147.784 265.291,148.084 C265.231,147.904 265.231,147.574 265.231,147.094 C265.231,145.984 265.291,144.634 265.381,143.044 C265.381,142.984 265.381,142.894 265.411,142.834 C265.441,142.834 265.471,142.834 265.531,142.804 C266.671,142.414 267.811,141.994 268.891,141.514 C269.191,141.394 269.431,141.244 269.671,141.094 C269.731,141.154 269.821,141.184 270.001,141.184 C270.331,141.184 270.601,141.064 270.811,140.794 C270.961,140.554 271.171,140.134 271.441,139.594 C271.981,138.274 272.461,136.894 272.881,135.484 C273.061,134.704 273.181,134.104 273.181,133.744 C273.181,133.414 273.001,133.114 272.641,132.814 C272.341,132.694 272.071,132.604 271.771,132.604 C271.441,132.604 271.051,132.664 270.571,132.724 C270.001,132.844 269.461,132.964 268.951,133.084 C268.951,133.084 268.981,133.054 268.981,132.994 C268.981,132.664 268.861,132.424 268.621,132.244 C267.721,131.524 267.061,131.044 266.581,130.744 C266.851,130.354 267.151,129.934 267.481,129.454 C267.601,129.544 267.751,129.634 267.961,129.724 C269.611,130.624 271.171,131.434 272.611,132.154 L277.231,134.314 C278.461,134.914 279.361,135.304 279.931,135.484 C280.021,135.544 280.111,135.574 280.231,135.574 C280.741,135.574 281.011,135.304 281.011,134.764 C280.981,134.554 280.861,134.344 280.681,134.104 C280.441,133.924 280.171,133.774 279.871,133.624 C278.911,133.084 277.621,132.454 276.031,131.674 C273.811,130.534 272.041,129.634 270.661,128.944 C271.381,128.284 272.101,127.504 272.761,126.604 C273.271,126.844 273.781,127.084 274.321,127.324 C275.041,127.684 275.731,127.984 276.331,128.194 C276.571,128.314 276.781,128.374 276.931,128.374 L277.081,128.374 C277.321,128.314 277.441,128.074 277.441,127.714 C277.441,127.414 277.321,127.144 277.081,126.874 C276.421,126.454 275.671,126.034 274.891,125.674 C274.501,125.494 274.141,125.314 273.781,125.074 C274.171,124.354 274.561,123.544 274.921,122.704 C275.311,121.624 275.521,120.784 275.521,120.214 C275.521,119.794 275.311,119.464 274.951,119.224 C274.681,119.104 274.321,119.014 273.871,119.014 C272.221,119.074 270.901,119.494 269.911,120.214 C269.581,120.394 269.431,120.664 269.431,120.994 C269.431,121.444 269.641,121.714 270.091,121.774 C271.261,121.234 272.461,120.904 273.721,120.724 C273.301,121.894 272.731,123.034 272.071,124.174 C271.741,123.994 271.381,123.784 271.021,123.574 C270.601,123.334 270.241,123.124 269.941,123.004 C269.791,122.914 269.641,122.854 269.461,122.824 C269.281,122.824 269.161,122.854 269.071,122.884 C268.921,122.944 268.801,123.034 268.681,123.154 C268.531,123.334 268.471,123.514 268.471,123.664 C268.471,123.784 268.501,123.934 268.591,124.054 C268.651,124.174 268.891,124.324 269.251,124.564 C269.821,124.954 270.451,125.344 271.111,125.704 C270.511,126.544 269.881,127.384 269.191,128.164 C268.951,128.044 268.741,127.894 268.501,127.774 C268.501,127.714 268.531,127.654 268.531,127.534 C268.471,126.994 268.171,126.694 267.631,126.634 C267.181,126.634 266.851,126.844 266.671,127.204 C263.101,132.964 259.531,137.824 255.961,141.844 C255.661,142.114 255.511,142.354 255.511,142.594 C255.511,143.194 255.811,143.494 256.381,143.494 C256.681,143.494 257.011,143.314 257.371,142.924 C258.331,141.814 259.261,140.674 260.221,139.504 C261.151,138.244 262.111,136.924 263.071,135.574 C263.131,136.054 263.401,136.294 263.851,136.294 M265.591,132.154 C265.711,132.274 265.891,132.454 266.161,132.694 C266.551,133.054 267.001,133.294 267.481,133.444 C265.801,133.894 264.571,134.314 263.761,134.674 C264.361,133.834 264.991,132.994 265.591,132.154 M269.671,139.594 C269.521,139.624 269.311,139.714 269.011,139.864 C268.051,140.344 266.911,140.824 265.531,141.274 C265.591,140.614 265.651,139.864 265.711,138.994 C267.601,138.274 269.221,137.644 270.541,137.074 C270.241,137.884 269.971,138.724 269.671,139.594 M273.061,144.514 C273.901,143.884 274.681,143.164 275.371,142.324 C275.551,142.084 275.701,141.874 275.791,141.724 C275.881,141.544 275.941,141.394 275.941,141.214 C275.941,140.854 275.791,140.584 275.521,140.404 C275.281,140.284 275.041,140.224 274.801,140.224 C274.531,140.284 274.351,140.374 274.231,140.524 C274.081,140.734 273.931,140.944 273.811,141.184 C273.031,142.204 272.191,143.074 271.231,143.854 C271.081,143.794 270.931,143.734 270.811,143.674 C270.211,143.434 269.641,143.284 269.161,143.164 C268.981,143.104 268.831,143.074 268.711,143.074 C268.381,143.074 268.141,143.254 267.991,143.584 C267.871,143.764 267.811,143.944 267.811,144.124 L267.811,144.394 C267.841,144.514 267.961,144.664 268.141,144.844 C268.441,144.994 268.861,145.144 269.371,145.324 C270.931,145.894 272.371,146.434 273.751,146.944 L278.161,148.414 C279.331,148.774 280.171,149.014 280.711,149.164 C280.831,149.194 280.951,149.224 281.071,149.254 C281.611,149.254 281.911,148.954 281.911,148.354 C281.881,148.084 281.761,147.844 281.551,147.604 C281.311,147.484 281.071,147.394 280.801,147.304 C279.871,146.944 278.641,146.494 277.141,145.954 C275.551,145.384 274.201,144.904 273.061,144.514 M306.952,122.224 C307.312,122.074 307.612,121.864 307.822,121.594 C308.002,121.324 308.092,121.084 308.092,120.844 C308.092,120.604 307.882,120.394 307.522,120.184 C307.162,120.034 306.832,119.944 306.562,119.944 C306.262,120.064 305.902,120.184 305.512,120.334 C302.662,121.324 299.992,122.074 297.532,122.584 C295.252,123.094 293.122,123.334 291.172,123.334 C290.902,123.334 290.662,123.334 290.452,123.304 C289.912,123.604 289.582,123.934 289.522,124.294 L289.522,124.804 C289.522,125.404 289.792,125.704 290.362,125.764 L291.232,125.764 C292.162,125.734 293.122,125.644 294.112,125.524 C296.482,125.164 298.762,124.684 300.922,124.084 C303.202,123.544 305.212,122.914 306.952,122.224 M313.072,130.864 C313.072,130.744 313.042,130.624 313.012,130.564 C312.892,130.354 312.682,130.234 312.412,130.234 C310.402,130.834 307.852,131.464 304.792,132.184 C304.792,131.134 304.792,130.144 304.822,129.184 C304.852,127.384 304.882,126.094 304.882,125.344 C304.882,124.744 304.552,124.384 303.952,124.204 L303.382,124.204 C302.842,124.384 302.572,124.744 302.572,125.344 C302.572,127.084 302.602,128.734 302.602,130.294 C302.602,131.074 302.602,131.884 302.632,132.664 C301.582,132.904 300.472,133.144 299.302,133.384 C297.892,133.684 296.452,133.984 294.982,134.254 C295.042,133.654 295.102,133.024 295.162,132.424 L295.342,129.784 C295.372,128.974 295.402,128.254 295.432,127.654 C295.372,126.994 295.102,126.634 294.622,126.574 L293.902,126.574 C293.392,126.754 293.152,127.114 293.152,127.654 L293.152,129.274 C293.122,130.594 293.062,132.394 292.942,134.674 C291.052,135.034 289.132,135.364 287.212,135.664 C286.672,135.844 286.252,135.994 285.922,136.114 C285.322,136.414 285.052,136.714 285.052,137.074 C285.142,137.884 285.472,138.304 286.042,138.304 C286.372,138.304 286.762,138.274 287.212,138.214 C287.662,138.154 288.382,138.034 289.402,137.854 C290.482,137.644 291.622,137.404 292.792,137.164 C292.792,137.374 292.762,137.584 292.762,137.824 C292.462,142.084 292.312,144.544 292.312,145.264 C292.312,145.714 292.312,146.014 292.342,146.164 C292.462,146.644 292.732,146.884 293.182,146.944 C293.482,146.944 293.782,146.764 294.082,146.434 C294.202,146.194 294.292,145.744 294.352,145.144 C294.382,144.124 294.442,142.804 294.562,141.154 C294.622,139.624 294.712,138.154 294.832,136.744 C296.482,136.414 298.192,136.054 299.992,135.634 C300.922,135.454 301.822,135.244 302.692,135.034 C302.722,136.114 302.782,137.224 302.842,138.304 C302.962,140.584 303.022,142.744 303.052,144.784 C302.992,146.014 302.662,147.184 302.032,148.324 C302.032,149.044 302.362,149.434 303.052,149.434 C303.502,149.434 303.862,149.194 304.132,148.774 C304.732,147.694 305.032,146.284 305.032,144.544 C305.032,143.164 304.972,141.484 304.882,139.504 C304.822,137.554 304.792,135.904 304.792,134.524 C308.812,133.504 311.452,132.544 312.682,131.704 C312.922,131.404 313.072,131.134 313.072,130.864 M318.163,138.394 C318.193,140.014 319.003,141.334 320.563,142.324 C320.623,142.384 320.743,142.444 320.893,142.504 C320.743,142.684 320.593,142.834 320.473,143.014 C319.873,143.614 319.273,144.094 318.643,144.514 C318.373,144.634 318.253,144.814 318.253,145.054 C318.253,145.594 318.583,145.894 319.303,145.924 C319.663,145.924 320.023,145.834 320.353,145.684 C320.983,145.294 321.643,144.724 322.303,143.944 C322.423,143.794 322.573,143.614 322.693,143.434 C323.443,143.794 324.073,143.974 324.553,143.974 C325.213,143.974 325.603,143.674 325.723,143.014 C325.723,142.774 325.573,142.564 325.303,142.384 C324.883,142.204 324.403,141.934 323.893,141.634 C324.133,141.214 324.343,140.734 324.583,140.224 C325.723,137.494 326.293,134.914 326.293,132.514 C326.293,131.554 326.143,130.654 325.873,129.754 C325.573,129.064 325.153,128.704 324.673,128.704 C324.403,128.704 324.193,128.794 324.073,128.944 C323.833,129.094 323.683,129.304 323.623,129.544 C323.563,129.574 323.503,129.604 323.443,129.634 C322.783,129.874 322.093,130.144 321.343,130.384 C321.403,129.544 321.463,128.734 321.463,128.014 C321.463,127.144 321.373,126.424 321.223,125.824 C320.953,125.074 320.563,124.684 320.083,124.684 C319.483,124.744 319.123,125.164 319.063,125.914 C319.063,126.154 319.063,126.394 319.093,126.664 C319.153,127.234 319.213,127.804 319.243,128.374 C319.243,128.974 319.213,129.514 319.213,130.054 C319.183,130.354 319.153,130.684 319.123,131.044 C318.523,131.224 317.863,131.404 317.173,131.554 C316.843,131.644 316.603,131.734 316.423,131.794 C316.063,132.064 315.853,132.334 315.853,132.634 C315.853,133.294 316.153,133.804 316.813,134.134 L317.083,134.134 C317.383,134.074 317.653,134.014 317.923,133.894 C318.193,133.834 318.493,133.714 318.823,133.594 C318.823,133.684 318.793,133.774 318.793,133.834 C318.373,135.964 318.163,137.494 318.163,138.394 M323.983,131.614 C324.013,131.914 324.043,132.274 324.043,132.634 C324.043,133.144 323.983,133.684 323.923,134.224 C323.563,136.624 323.023,138.634 322.303,140.194 C322.243,140.314 322.183,140.434 322.123,140.584 C321.643,140.314 321.253,140.014 320.923,139.684 C320.503,139.324 320.263,138.904 320.263,138.424 C320.263,138.034 320.293,137.434 320.413,136.654 C320.473,135.844 320.623,134.734 320.923,133.294 C320.923,133.174 320.953,132.994 320.983,132.814 C321.703,132.574 322.423,132.274 323.173,131.974 C323.443,131.884 323.713,131.764 323.983,131.614 M342.163,133.834 C342.403,134.284 342.703,134.494 343.093,134.494 C343.633,134.434 343.933,134.104 343.933,133.474 C343.933,133.264 343.783,132.874 343.483,132.304 C342.043,129.124 340.783,126.934 339.763,125.764 C339.583,125.554 339.313,125.434 339.013,125.434 C338.443,125.554 338.173,125.944 338.173,126.634 C338.173,126.754 338.203,126.904 338.263,127.054 C337.243,128.074 336.073,129.004 334.753,129.844 C333.613,130.564 332.593,131.164 331.693,131.584 C331.003,131.884 330.493,132.034 330.163,132.064 C330.463,131.434 330.853,130.654 331.303,129.694 C332.083,128.074 332.893,126.364 333.673,124.594 C334.573,122.674 335.023,121.534 335.053,121.174 L335.053,120.874 C334.993,120.214 334.663,119.854 334.033,119.794 C333.613,119.794 333.343,120.004 333.163,120.424 C332.803,121.264 332.383,122.194 331.933,123.274 C331.393,124.534 330.793,125.824 330.103,127.204 C329.413,128.644 328.753,129.844 328.153,130.804 C327.673,131.614 327.433,132.274 327.433,132.784 C327.433,133.564 327.883,134.014 328.843,134.134 L329.413,134.134 C330.253,134.134 331.333,133.834 332.653,133.234 C333.883,132.664 334.993,132.034 335.983,131.344 C337.123,130.624 338.143,129.814 339.043,128.944 C339.043,128.944 339.073,128.914 339.133,128.884 C340.063,130.564 341.083,132.214 342.163,133.834 M332.353,139.954 C336.553,138.514 339.163,137.794 340.213,137.794 C339.553,139.744 338.623,141.784 337.423,143.944 C336.673,144.244 335.863,144.574 334.993,144.874 C334.573,144.994 334.033,145.174 333.433,145.354 C333.313,144.454 333.103,143.344 332.803,141.934 C332.623,141.214 332.473,140.554 332.353,139.954 M333.553,147.364 C334.843,147.064 336.193,146.584 337.603,145.984 C338.833,145.444 339.853,144.934 340.633,144.394 C340.873,144.094 340.993,143.824 340.993,143.524 C340.993,143.344 340.963,143.224 340.963,143.104 C340.813,142.894 340.603,142.774 340.303,142.714 C340.543,142.324 340.783,141.904 340.993,141.484 C341.833,139.834 342.283,138.514 342.283,137.524 C342.283,136.834 342.073,136.294 341.653,135.904 C341.323,135.604 340.933,135.424 340.453,135.424 L340.153,135.424 C338.653,135.604 335.863,136.384 331.723,137.824 C331.693,137.794 331.663,137.734 331.663,137.644 C331.513,137.314 331.273,137.074 330.943,136.954 C330.763,136.894 330.583,136.864 330.343,136.864 C330.043,136.864 329.773,137.014 329.593,137.254 C329.413,137.494 329.323,137.734 329.293,137.944 C329.743,139.444 330.313,141.304 331.003,143.524 C331.423,145.084 331.663,146.344 331.753,147.364 C331.783,147.904 332.083,148.204 332.623,148.204 C333.103,148.174 333.433,147.904 333.553,147.364 Z" style="stroke:none;fill-rule:nonzero;fill:#ffffff;fill-opacity:1;"/>
        </g>
    </g>
</svg>
