<?xml version="1.0"?>
<svg version="1.1" xmlns="http://www.w3.org/2000/svg" xmlns:xlink="http://www.w3.org/1999/xlink" width="585.262" height="106.403">
    <desc iVinci="yes" version="4.6" gridStep="20" showGrid="yes" snapToGrid="no" codePlatform="0"/>
    <g id="Layer1" name="Layer 1" opacity="1">
        <g id="Shape1">
            <desc shapeID="1" type="2" basicInfo-basicType="0" basicInfo-roundedRectRadius="12" basicInfo-polygonSides="6" basicInfo-starPoints="5" bounding="rect(-286.185,-39.1096,572.371,78.2192)" text="不仅是美食，更是关爱和健康" font-familyName="华文仿宋" font-pixelSize="44" font-bold="0" font-underline="0" font-alignment="1" strokeStyle="0" markerStart="0" markerEnd="0" shadowEnabled="0" shadowOffsetX="0" shadowOffsetY="2" shadowBlur="4" shadowOpacity="160" blurEnabled="0" blurRadius="4" transform="matrix(1,0,0,1,291.906,53.0332)" pers-center="0,0" pers-size="0,0" pers-start="0,0" pers-end="0,0" locked="0" mesh="" flag=""/>
            <path id="shapePath1" d="M44.142,38.128 C44.318,38.2747 44.406,38.3847 44.406,38.458 C44.406,38.5313 44.274,38.5827 44.01,38.612 L32.262,39.668 L33.582,42.176 C33.6113,42.2053 33.626,42.2567 33.626,42.33 C33.626,42.4033 33.538,42.484 33.362,42.572 C32.746,42.8653 32.0347,43.54 31.228,44.596 C30.4213,45.652 29.2993,47.06 27.862,48.82 L29.798,50.8 C29.8567,50.8587 29.886,50.932 29.886,51.02 C29.886,51.108 29.8273,51.24 29.71,51.416 C29.3873,51.8853 29.226,53.3373 29.226,55.772 L29.226,66.244 C29.226,71.2307 29.006,73.724 28.566,73.724 C28.5073,73.724 28.434,73.6507 28.346,73.504 L26.234,69.456 C26.7327,68.6933 27.0553,67.9527 27.202,67.234 C27.3487,66.5153 27.422,65.3933 27.422,63.868 L27.422,55.2 C27.422,52.3547 27.3193,50.5067 27.114,49.656 C22.2447,55.1413 16.5687,59.6293 10.086,63.12 L9.69,62.46 C14.9113,59.1747 19.568,55.3833 23.66,51.086 C27.752,46.7887 30.238,43.012 31.118,39.756 C21.526,40.636 15.938,41.384 14.354,42 L11.494,40.064 C29.358,38.656 39.522,37.3947 41.986,36.28 L44.142,38.128 M43.702,56.564 C43.878,57.9427 43.966,58.9693 43.966,59.644 C43.966,60.3187 43.8487,60.656 43.614,60.656 C43.5553,60.656 43.482,60.612 43.394,60.524 C41.3993,58.4413 39.5807,56.7107 37.938,55.332 C36.2953,53.9533 34.3887,52.4573 32.218,50.844 L32.614,50.228 L43.702,56.564 M66.934,36.148 C66.9633,36.2067 66.978,36.2653 66.978,36.324 C66.978,36.3827 66.8827,36.456 66.692,36.544 C66.5013,36.632 66.23,36.9253 65.878,37.424 C65.526,37.9227 64.9833,38.7807 64.25,39.998 C63.5167,41.2153 63.018,42.0293 62.754,42.44 L62.754,67.476 C62.754,70.7027 62.6953,72.514 62.578,72.91 C62.4607,73.306 62.358,73.504 62.27,73.504 C62.182,73.504 62.094,73.416 62.006,73.24 L60.026,69.5 C60.466,68.796 60.7447,68.092 60.862,67.388 C60.9793,66.684 61.038,65.3347 61.038,63.34 L61.038,45.08 C58.486,48.8347 55.6113,52.1347 52.414,54.98 L52.018,54.408 C55.978,49.9493 59.0213,45.7913 61.148,41.934 C63.2747,38.0767 64.338,35.224 64.338,33.376 C64.338,33.112 64.3233,32.892 64.294,32.716 L64.866,32.452 L66.934,36.148 M91.794,69.104 L84.314,70.204 L76.482,59.38 C73.49,64.2787 69.5447,68.62 64.646,72.404 L63.986,71.876 C68.65,67.7693 72.4633,63.12 75.426,57.928 L71.774,52.868 C70.3953,50.8733 69.4567,49.5827 68.958,48.996 C68.4593,48.4093 67.99,47.9987 67.55,47.764 L67.594,47.368 L70.454,47.412 C70.454,47.7053 70.6373,48.226 71.004,48.974 C71.3707,49.722 71.8033,50.448 72.302,51.152 L76.174,56.52 C78.726,51.7093 80.4273,46.9867 81.278,42.352 C75.03,43.3493 70.8647,44.0827 68.782,44.552 L66.626,43.1 L81.102,40.856 L82.466,38.964 L84.842,41.164 C84.93,41.2227 84.974,41.2887 84.974,41.362 C84.974,41.4353 84.93,41.5013 84.842,41.56 C83.9913,42.2053 83.4193,43.1 83.126,44.244 C81.4247,49.5533 79.474,54.1587 77.274,58.06 C80.1487,62.1373 82.4807,64.858 84.27,66.222 C86.0593,67.586 88.5673,68.3267 91.794,68.444 L91.794,69.104 M125.982,34.784 C126.129,34.9013 126.202,34.9967 126.202,35.07 C126.202,35.1433 126.099,35.2533 125.894,35.4 C125.19,35.84 124.779,36.5733 124.662,37.6 L123.694,45.212 L125.014,46.4 C125.219,46.576 125.322,46.708 125.322,46.796 C125.322,46.884 125.175,46.9427 124.882,46.972 L110.758,48.644 C110.67,49.7587 110.479,50.316 110.186,50.316 C110.098,50.316 110.01,50.228 109.922,50.052 L108.558,47.456 C108.939,46.7813 109.101,45.6667 109.042,44.112 L108.778,38.392 C108.719,36.896 108.426,35.224 107.898,33.376 L108.382,33.112 L110.274,36.192 L122.858,34.96 L124.002,33.376 L125.982,34.784 M123.034,36.28 L110.186,37.6 L110.406,41.824 C115.745,41.12 118.795,40.5627 119.558,40.152 L120.834,41.252 C121.01,41.428 121.098,41.5527 121.098,41.626 C121.098,41.6993 120.966,41.7507 120.702,41.78 L110.494,43.056 L110.714,47.368 L122.11,45.828 L123.034,36.28 M135.002,70.336 L126.51,72.624 L107.678,63.208 C106.505,64.9093 104.935,66.7353 102.97,68.686 C101.005,70.6367 99.2593,72.1107 97.734,73.108 L97.294,72.536 C100.785,69.72 103.542,66.816 105.566,63.824 C107.59,60.832 108.602,58.5147 108.602,56.872 C108.602,56.608 108.573,56.3733 108.514,56.168 L109.086,55.86 L110.67,58.28 C110.787,58.4267 110.846,58.5587 110.846,58.676 C110.846,58.7933 110.751,58.9253 110.56,59.072 C110.369,59.2187 109.599,60.304 108.25,62.328 L115.554,65.672 L115.554,53.528 C107.751,54.2613 102.853,54.9067 100.858,55.464 L98.834,53.836 L117.534,51.988 C122.139,51.4893 125.359,51.108 127.192,50.844 C129.025,50.58 130.206,50.2867 130.734,49.964 L132.67,51.46 C132.875,51.6067 132.978,51.724 132.978,51.812 C132.978,51.9 132.802,51.9587 132.45,51.988 L117.226,53.396 L117.226,58.94 C121.949,58.2067 124.677,57.5613 125.41,57.004 L127.346,58.412 C127.522,58.5587 127.61,58.6613 127.61,58.72 C127.61,58.7787 127.493,58.8227 127.258,58.852 L117.226,60.172 L117.226,66.42 C119.954,67.652 122.308,68.5393 124.288,69.082 C126.268,69.6247 128.123,69.896 129.854,69.896 C131.585,69.896 133.271,69.808 134.914,69.632 L135.002,70.336 M178.43,71.568 L170.334,72.404 L159.158,60.392 L158.982,60.392 C157.985,63.5013 155.983,66.2147 152.976,68.532 C149.969,70.8493 146.222,72.5947 141.734,73.768 L141.47,72.976 C146.662,71.0107 150.314,69.1113 152.426,67.278 C154.538,65.4447 156.093,63.208 157.09,60.568 C152.837,60.92 150.021,61.36 148.642,61.888 L146.53,60.304 L157.486,59.248 C158.014,57.3413 158.219,55.6253 158.102,54.1 C152.001,54.628 148.085,55.1413 146.354,55.64 L144.11,54.1 L158.982,52.78 L158.982,48.908 C155.521,49.26 152.778,49.6413 150.754,50.052 L148.906,48.6 L158.982,47.764 L158.982,43.584 C153.761,43.9653 150.138,44.3907 148.114,44.86 L146.134,43.364 L161.71,42.264 C163.118,39.184 164.042,36.984 164.482,35.664 C164.922,34.344 165.142,33.1267 165.142,32.012 L165.89,31.968 L167.518,34.74 C167.577,34.8573 167.606,34.9673 167.606,35.07 C167.606,35.1727 167.547,35.2827 167.43,35.4 C167.078,35.664 166.601,36.2433 166,37.138 C165.399,38.0327 164.365,39.712 162.898,42.176 C166.418,41.736 169.263,41.1787 171.434,40.504 L173.238,42 C173.385,42.1173 173.458,42.2127 173.458,42.286 C173.458,42.3593 173.355,42.4107 173.15,42.44 L160.566,43.452 L160.566,47.632 C164.409,47.0747 167.137,46.532 168.75,46.004 L170.378,47.324 C170.525,47.4413 170.598,47.5367 170.598,47.61 C170.598,47.6833 170.495,47.7347 170.29,47.764 L160.566,48.732 L160.566,52.648 C168.369,52.0027 172.886,51.4453 174.118,50.976 L175.878,52.34 C176.025,52.4573 176.098,52.5527 176.098,52.626 C176.098,52.6993 175.995,52.7507 175.79,52.78 L159.29,54.012 L160.654,55.376 C160.801,55.5227 160.874,55.6473 160.874,55.75 C160.874,55.8527 160.771,55.9773 160.566,56.124 C160.361,56.2707 160.177,56.52 160.016,56.872 C159.855,57.224 159.627,57.9573 159.334,59.072 C164.291,58.6613 168.119,58.0453 170.818,57.224 L172.71,58.72 C172.857,58.8373 172.93,58.9327 172.93,59.006 C172.93,59.0793 172.827,59.1307 172.622,59.16 L160.434,60.26 L163.822,63.516 C167.137,66.684 169.711,68.7007 171.544,69.566 C173.377,70.4313 175.673,70.8787 178.43,70.908 L178.43,71.568 M157.838,37.952 C157.662,39.3307 157.471,40.2327 157.266,40.658 C157.061,41.0833 156.907,41.296 156.804,41.296 C156.701,41.296 156.621,41.2373 156.562,41.12 L152.382,33.42 L152.778,33.112 L157.838,37.952 M223.354,50.756 L216.842,51.372 L202.498,37.116 C199.829,40.5187 197.438,43.364 195.326,45.652 L196.646,48.336 L203.334,47.28 L200.254,42.264 L200.562,41.78 L204.258,44.64 C204.258,45.3733 204.053,46.2387 203.642,47.236 L207.822,46.576 L208.746,45.388 L210.638,46.928 C210.785,47.016 210.858,47.1113 210.858,47.214 C210.858,47.3167 210.785,47.3973 210.638,47.456 C210.227,47.6907 209.963,48.2627 209.846,49.172 L208.966,56.08 L210.154,56.96 C210.33,57.0773 210.418,57.1727 210.418,57.246 C210.418,57.3193 210.286,57.3707 210.022,57.4 L196.734,59.248 L196.734,69.368 L203.114,64.396 L203.554,64.924 C199.33,68.796 196.91,71.348 196.294,72.58 C196.177,72.756 196.067,72.844 195.964,72.844 C195.861,72.844 195.737,72.8147 195.59,72.756 L193.522,71.744 C194.314,71.04 194.798,70.358 194.974,69.698 C195.15,69.038 195.238,67.5933 195.238,65.364 L195.238,51.46 C195.238,49.2893 195.077,47.5733 194.754,46.312 C192.026,49.304 188.697,52.1053 184.766,54.716 L184.458,54.232 C189.151,50.624 193.273,46.5613 196.822,42.044 C200.371,37.5267 202.146,34.476 202.146,32.892 C202.146,32.7747 202.131,32.6573 202.102,32.54 L202.63,32.32 L204.214,35.048 C204.302,35.1653 204.346,35.268 204.346,35.356 C204.346,35.444 204.251,35.5247 204.06,35.598 C203.869,35.6713 203.598,35.884 203.246,36.236 L211.078,43.848 C213.542,46.1947 215.522,47.7493 217.018,48.512 C218.514,49.2747 220.626,49.8467 223.354,50.228 L223.354,50.756 M208.262,47.764 L196.734,49.568 L196.734,53.44 C201.398,52.648 203.965,52.032 204.434,51.592 L205.886,52.736 C206.033,52.8533 206.106,52.9413 206.106,53 C206.106,53.0587 206.003,53.1027 205.798,53.132 L196.734,54.628 L196.734,58.06 L207.514,56.476 L208.262,47.764 M214.29,68.62 C214.525,69.9987 214.642,70.952 214.642,71.48 C214.642,72.008 214.605,72.272 214.532,72.272 C214.459,72.272 214.349,72.1987 214.202,72.052 C209.626,67.652 204.977,63.78 200.254,60.436 L200.562,59.952 L206.722,63.824 C208.482,62.416 209.861,61.1913 210.858,60.15 C211.855,59.1087 212.295,58.1773 212.178,57.356 L212.706,57.136 L213.762,60.348 C213.821,60.4947 213.85,60.634 213.85,60.766 C213.85,60.898 213.659,60.9713 213.278,60.986 C212.897,61.0007 212.376,61.1913 211.716,61.558 C211.056,61.9247 209.67,62.856 207.558,64.352 L214.29,68.62 M233.87,73.284 C235.894,71.7 237.104,70.4827 237.5,69.632 C237.896,68.7813 238.094,67.9453 238.094,67.124 C238.094,66.4493 237.705,66.112 236.928,66.112 C236.151,66.112 235.483,65.8993 234.926,65.474 C234.369,65.0487 234.09,64.5353 234.09,63.934 C234.09,63.3327 234.303,62.79 234.728,62.306 C235.153,61.822 235.733,61.58 236.466,61.58 C237.493,61.58 238.409,62.0347 239.216,62.944 C240.023,63.8533 240.426,64.968 240.426,66.288 C240.426,67.608 239.913,69.0013 238.886,70.468 C237.859,71.9347 236.437,73.196 234.618,74.252 L233.87,73.284 M310.43,68.444 L303.038,70.072 L289.354,62.196 C286.509,66.5373 281.346,69.8813 273.866,72.228 L273.558,71.656 C276.843,70.3653 279.777,68.796 282.358,66.948 C284.939,65.1 286.817,63.252 287.99,61.404 C283.355,58.7053 280.129,57.2387 278.31,57.004 L278.354,56.564 L280.818,55.992 C281.522,56.52 284.089,58.0013 288.518,60.436 C289.251,59.0573 289.765,57.0627 290.058,54.452 L284.162,55.112 C284.162,56.168 284.074,56.696 283.898,56.696 C283.81,56.696 283.693,56.608 283.546,56.432 L281.698,54.276 C282.079,53.5427 282.27,52.846 282.27,52.186 C282.27,51.526 282.255,50.976 282.226,50.536 L281.786,45.036 C281.698,43.716 281.39,42.1907 280.862,40.46 L281.302,40.196 L283.15,42.836 L290.498,42.044 C290.498,40.1373 290.469,38.5387 290.41,37.248 C283.399,37.864 279.219,38.348 277.87,38.7 L275.978,36.984 C292.111,36.0747 301.645,35.0773 304.578,33.992 L306.118,35.4 C306.265,35.5467 306.338,35.6567 306.338,35.73 C306.338,35.8033 306.221,35.8547 305.986,35.884 L292.346,37.072 C292.346,37.5413 292.317,39.14 292.258,41.868 L300.046,40.988 L301.63,39.404 L303.346,41.12 C303.434,41.208 303.478,41.2813 303.478,41.34 C303.478,41.3987 303.419,41.4573 303.302,41.516 C302.598,41.8973 302.173,42.5427 302.026,43.452 L300.75,51.592 L301.63,52.604 C301.777,52.78 301.85,52.912 301.85,53 C301.85,53.088 301.747,53.1467 301.542,53.176 L291.642,54.276 C291.319,57.3267 290.747,59.6293 289.926,61.184 C295.001,63.912 298.777,65.716 301.256,66.596 C303.735,67.476 306.147,67.916 308.494,67.916 C309.051,67.916 309.682,67.9013 310.386,67.872 L310.43,68.444 M300.354,42.308 L292.214,43.276 L292.082,47.192 C293.959,46.9573 295.543,46.5907 296.834,46.092 L298.066,47.236 C298.242,47.412 298.33,47.5367 298.33,47.61 C298.33,47.6833 298.183,47.7347 297.89,47.764 L292.038,48.424 C292.009,49.6267 291.935,51.0493 291.818,52.692 L299.078,51.988 L300.354,42.308 M290.498,43.452 L283.502,44.288 L284.074,53.484 L290.19,52.868 C290.249,52.34 290.337,50.9173 290.454,48.6 C288.283,48.8933 286.582,49.216 285.35,49.568 L283.81,48.072 L290.454,47.368 C290.483,46.6933 290.498,45.388 290.498,43.452 M345.982,34.784 C346.129,34.9013 346.202,34.9967 346.202,35.07 C346.202,35.1433 346.099,35.2533 345.894,35.4 C345.19,35.84 344.779,36.5733 344.662,37.6 L343.694,45.212 L345.014,46.4 C345.219,46.576 345.322,46.708 345.322,46.796 C345.322,46.884 345.175,46.9427 344.882,46.972 L330.758,48.644 C330.67,49.7587 330.479,50.316 330.186,50.316 C330.098,50.316 330.01,50.228 329.922,50.052 L328.558,47.456 C328.939,46.7813 329.101,45.6667 329.042,44.112 L328.778,38.392 C328.719,36.896 328.426,35.224 327.898,33.376 L328.382,33.112 L330.274,36.192 L342.858,34.96 L344.002,33.376 L345.982,34.784 M343.034,36.28 L330.186,37.6 L330.406,41.824 C335.745,41.12 338.795,40.5627 339.558,40.152 L340.834,41.252 C341.01,41.428 341.098,41.5527 341.098,41.626 C341.098,41.6993 340.966,41.7507 340.702,41.78 L330.494,43.056 L330.714,47.368 L342.11,45.828 L343.034,36.28 M355.002,70.336 L346.51,72.624 L327.678,63.208 C326.505,64.9093 324.935,66.7353 322.97,68.686 C321.005,70.6367 319.259,72.1107 317.734,73.108 L317.294,72.536 C320.785,69.72 323.542,66.816 325.566,63.824 C327.59,60.832 328.602,58.5147 328.602,56.872 C328.602,56.608 328.573,56.3733 328.514,56.168 L329.086,55.86 L330.67,58.28 C330.787,58.4267 330.846,58.5587 330.846,58.676 C330.846,58.7933 330.751,58.9253 330.56,59.072 C330.369,59.2187 329.599,60.304 328.25,62.328 L335.554,65.672 L335.554,53.528 C327.751,54.2613 322.853,54.9067 320.858,55.464 L318.834,53.836 L337.534,51.988 C342.139,51.4893 345.359,51.108 347.192,50.844 C349.025,50.58 350.206,50.2867 350.734,49.964 L352.67,51.46 C352.875,51.6067 352.978,51.724 352.978,51.812 C352.978,51.9 352.802,51.9587 352.45,51.988 L337.226,53.396 L337.226,58.94 C341.949,58.2067 344.677,57.5613 345.41,57.004 L347.346,58.412 C347.522,58.5587 347.61,58.6613 347.61,58.72 C347.61,58.7787 347.493,58.8227 347.258,58.852 L337.226,60.172 L337.226,66.42 C339.954,67.652 342.308,68.5393 344.288,69.082 C346.268,69.6247 348.123,69.896 349.854,69.896 C351.585,69.896 353.271,69.808 354.914,69.632 L355.002,70.336 M397.726,70.732 L389.366,71.348 L379.378,55.464 L378.938,55.508 C377.031,62.8413 372.001,68.884 363.846,73.636 L363.186,73.064 C367.41,69.9253 370.571,67.036 372.668,64.396 C374.765,61.756 376.225,58.852 377.046,55.684 C369.859,56.3293 365.723,56.9013 364.638,57.4 L362.174,55.552 L377.398,54.232 C378.014,51.1227 378.322,48.5707 378.322,46.576 C373.805,47.104 370.974,47.5733 369.83,47.984 L367.41,46.268 L381.534,44.728 C382.825,41.9413 383.829,39.3893 384.548,37.072 C385.267,34.7547 385.626,33.1267 385.626,32.188 L386.198,32.144 L388.178,35.444 C388.237,35.532 388.266,35.6347 388.266,35.752 C388.266,35.8693 388.193,35.9867 388.046,36.104 C387.195,36.808 385.479,39.6387 382.898,44.596 C386.829,44.1267 389.337,43.5987 390.422,43.012 L392.49,44.552 C392.666,44.6693 392.754,44.7647 392.754,44.838 C392.754,44.9113 392.637,44.9627 392.402,44.992 L380.302,46.356 C380.185,48.8787 379.847,51.4453 379.29,54.056 C386.917,53.3813 391.815,52.692 393.986,51.988 L395.57,53.528 C395.687,53.6453 395.746,53.748 395.746,53.836 C395.746,53.924 395.629,53.9827 395.394,54.012 L380.566,55.332 L385.67,62.504 C387.166,64.616 388.376,66.1193 389.3,67.014 C390.224,67.9087 391.258,68.5467 392.402,68.928 C393.546,69.3093 395.321,69.6613 397.726,69.984 L397.726,70.732 M377.486,39.756 C377.398,40.4893 377.207,41.2593 376.914,42.066 C376.621,42.8727 376.415,43.276 376.298,43.276 C376.181,43.276 376.078,43.2027 375.99,43.056 L371.326,34.476 L371.766,34.08 L377.486,39.756 M442.078,70.38 L433.894,71.788 L425.226,64.924 C421.706,68.2093 416.617,70.7907 409.958,72.668 L409.782,71.964 C415.766,69.9107 420.547,67.2853 424.126,64.088 L421.354,61.844 C420.709,61.316 419.858,60.832 418.802,60.392 L418.802,60.216 L420.914,59.82 C421.266,60.4067 421.809,60.964 422.542,61.492 L425.006,63.296 C426.737,61.536 428.057,59.7467 428.966,57.928 C424.243,58.3387 421.457,58.7347 420.606,59.116 L418.758,58.016 C415.737,62.7387 411.747,66.728 406.79,69.984 L406.306,69.368 C412.231,64.8507 416.631,59.5853 419.506,53.572 C416.397,53.836 414.065,54.1733 412.51,54.584 L410.706,52.956 L420.078,52.296 C420.811,50.4773 421.266,48.8493 421.442,47.412 L411.542,48.248 C411.307,49.5387 410.904,50.6167 410.332,51.482 C409.76,52.3473 409.386,52.78 409.21,52.78 C409.151,52.78 409.093,52.7213 409.034,52.604 L408.11,50.492 C409.958,49.2013 410.911,47.0893 410.97,44.156 L411.674,44.156 C411.733,44.684 411.762,45.19 411.762,45.674 C411.762,46.158 411.747,46.6053 411.718,47.016 L417.262,46.488 L414.622,40.02 C413.507,40.196 412.598,40.328 411.894,40.416 L411.806,39.756 C418.465,38.348 423.393,37.138 426.59,36.126 C429.787,35.114 431.657,34.41 432.2,34.014 C432.743,33.618 433.014,33.2733 433.014,32.98 L433.41,32.848 L435.302,35.092 C435.449,35.2973 435.522,35.4367 435.522,35.51 C435.522,35.5833 435.405,35.62 435.17,35.62 C434.173,35.62 432.992,35.818 431.628,36.214 C430.264,36.61 427.309,37.3507 422.762,38.436 L425.93,42 C425.725,42.792 425.446,43.4813 425.094,44.068 C424.742,44.6547 424.529,44.948 424.456,44.948 C424.383,44.948 424.317,44.86 424.258,44.684 L421.97,38.612 C419.711,39.1107 417.497,39.5507 415.326,39.932 L418.626,43.628 C418.333,44.86 417.981,45.7987 417.57,46.444 L428.526,45.476 C431.049,41.428 432.325,38.5387 432.354,36.808 L432.882,36.544 L434.598,39.36 C434.657,39.448 434.686,39.536 434.686,39.624 C434.686,39.712 434.627,39.7853 434.51,39.844 C434.011,40.0493 433.505,40.4527 432.992,41.054 C432.479,41.6553 431.415,43.1 429.802,45.388 L436.578,44.728 L437.898,43.1 L439.922,44.992 C440.039,45.1093 440.098,45.2047 440.098,45.278 C440.098,45.3513 439.915,45.4687 439.548,45.63 C439.181,45.7913 438.69,46.1873 438.074,46.818 C437.458,47.4487 436.563,48.5707 435.39,50.184 L434.774,49.876 L436.578,46.092 L422.498,47.324 L423.73,49.172 C423.789,49.26 423.818,49.3407 423.818,49.414 C423.818,49.4873 423.759,49.5533 423.642,49.612 C423.231,49.788 422.659,50.6533 421.926,52.208 C428.467,51.68 432.677,51.0933 434.554,50.448 L436.358,51.944 C436.475,52.032 436.534,52.1127 436.534,52.186 C436.534,52.2593 436.446,52.296 436.27,52.296 L421.31,53.44 C420.723,54.7013 419.931,56.1387 418.934,57.752 L429.318,56.652 L430.462,55.156 L432.31,56.916 C432.369,56.9747 432.398,57.0407 432.398,57.114 C432.398,57.1873 432.339,57.2387 432.222,57.268 C431.489,57.6787 430.843,58.2947 430.286,59.116 C429.054,60.876 427.661,62.5333 426.106,64.088 C428.423,65.76 430.374,66.992 431.958,67.784 C433.542,68.576 435.053,69.104 436.49,69.368 C437.927,69.632 439.775,69.7493 442.034,69.72 L442.078,70.38 M470.942,46.18 C471.059,46.3267 471.118,46.444 471.118,46.532 C471.118,46.62 471.015,46.6787 470.81,46.708 L462.626,47.676 L462.626,49.348 L469.49,52.472 C469.637,53.2347 469.71,53.8727 469.71,54.386 C469.71,54.8993 469.695,55.2293 469.666,55.376 C469.637,55.5227 469.578,55.596 469.49,55.596 C469.402,55.596 469.255,55.5227 469.05,55.376 L462.626,50.316 L462.626,65.452 C462.626,70.6147 462.318,73.196 461.702,73.196 C461.614,73.196 461.526,73.0933 461.438,72.888 L459.942,69.676 C460.705,68.356 461.086,66.2147 461.086,63.252 L461.086,51.24 C458.006,56.344 454.163,60.5533 449.558,63.868 L449.206,63.428 C454.427,58.4413 458.299,53.264 460.822,47.896 C456.745,48.424 453.65,48.9813 451.538,49.568 L449.822,47.94 L461.086,46.576 L461.086,39.14 C457.947,40.2253 454.897,41.208 451.934,42.088 L451.626,41.34 C456.114,39.668 459.421,38.3333 461.548,37.336 C463.675,36.3387 465.053,35.532 465.684,34.916 C466.315,34.3 466.63,33.64 466.63,32.936 L467.07,32.848 L468.742,35.444 C468.889,35.6493 468.962,35.8033 468.962,35.906 C468.962,36.0087 468.903,36.0747 468.786,36.104 C468.581,36.1333 468.031,36.368 467.136,36.808 C466.241,37.248 464.738,37.8347 462.626,38.568 L462.626,46.4 C466.234,45.9013 468.551,45.3587 469.578,44.772 L470.942,46.18 M484.054,42.176 L485.858,44.068 C486.005,44.1853 486.078,44.288 486.078,44.376 C486.078,44.464 485.961,44.5887 485.726,44.75 C485.491,44.9113 485.271,45.2047 485.066,45.63 C484.861,46.0553 484.699,46.8253 484.582,47.94 L483.614,58.104 L485.066,59.468 C485.242,59.6147 485.33,59.7393 485.33,59.842 C485.33,59.9447 485.213,60.0107 484.978,60.04 L474.11,60.964 C474.11,63.34 474.022,64.726 473.846,65.122 C473.67,65.518 473.516,65.716 473.384,65.716 C473.252,65.716 473.142,65.5987 473.054,65.364 L471.69,62.284 C472.277,61.5507 472.555,60.0693 472.526,57.84 L472.35,47.588 C472.321,46.7667 472.211,45.696 472.02,44.376 C471.829,43.056 471.631,42.0587 471.426,41.384 L471.954,41.12 L473.89,45.212 L482.514,44.024 L484.054,42.176 M483.174,45.432 L473.89,46.752 L474.11,59.512 L482.118,58.5 L483.174,45.432 M531.222,70.424 L522.554,72.008 L507.462,62.768 C506.259,66.024 504.338,69.0747 501.698,71.92 L501.214,71.568 C503.355,68.752 505.027,65.5693 506.23,62.02 C504.705,61.052 503.121,60.2453 501.478,59.6 L501.522,59.248 L504.03,59.072 C504.47,59.6587 505.321,60.3187 506.582,61.052 C507.315,58.7053 507.902,56.0213 508.342,53 L505.702,53.528 C505.379,53.5867 505.049,53.6967 504.712,53.858 C504.375,54.0193 504.147,54.1807 504.03,54.342 C503.913,54.5033 503.81,54.584 503.722,54.584 C503.634,54.584 503.546,54.54 503.458,54.452 L502.05,53 C502.666,52.7067 503.099,52.406 503.348,52.098 C503.597,51.79 503.883,51.24 504.206,50.448 L506.846,43.848 C504.793,44.288 503.546,44.6253 503.106,44.86 L501.698,43.672 L506.67,42.704 L507.858,41.252 L509.398,42.968 C509.545,43.1147 509.618,43.232 509.618,43.32 C509.618,43.408 509.545,43.4813 509.398,43.54 C508.753,43.804 508.195,44.4787 507.726,45.564 L504.822,52.428 L508.21,51.856 L509.222,50.316 L510.806,51.636 C510.923,51.724 510.982,51.8267 510.982,51.944 C510.982,52.0613 510.894,52.164 510.718,52.252 C510.278,52.5453 509.926,53.2787 509.662,54.452 C508.929,57.8253 508.313,60.26 507.814,61.756 L516.746,66.728 L515.602,63.956 C516.071,62.9 516.321,61.5067 516.35,59.776 C513.827,60.0693 512.023,60.3627 510.938,60.656 L509.53,59.424 L516.35,58.676 L516.35,54.936 C514.561,55.1413 513.255,55.3613 512.434,55.596 L510.894,54.408 L516.35,53.792 L516.35,50.14 C514.59,50.3747 513.285,50.6093 512.434,50.844 L510.938,49.656 L516.35,48.908 L516.35,45.52 C513.739,45.8427 511.994,46.1213 511.114,46.356 L509.354,45.08 L516.35,44.244 L516.35,40.988 C514.385,41.3107 513.035,41.5747 512.302,41.78 L510.762,40.416 L516.35,39.668 C516.35,36.1187 516.071,33.7867 515.514,32.672 L515.954,32.32 L518.418,34.168 C518.565,34.2853 518.638,34.3953 518.638,34.498 C518.638,34.6007 518.594,34.7107 518.506,34.828 C518.066,35.444 517.846,36.984 517.846,39.448 L522.29,38.832 L523.17,37.38 L524.886,38.656 C525.062,38.7733 525.15,38.876 525.15,38.964 C525.15,39.052 525.018,39.1693 524.754,39.316 C524.49,39.4627 524.292,39.778 524.16,40.262 C524.028,40.746 523.874,41.78 523.698,43.364 C525.605,43.0413 526.998,42.6893 527.878,42.308 L529.462,43.408 C529.638,43.5253 529.726,43.628 529.726,43.716 C529.726,43.804 529.579,43.8627 529.286,43.892 L523.61,44.596 L523.258,47.852 L524.05,48.688 C524.197,48.8347 524.27,48.952 524.27,49.04 C524.27,49.128 524.138,49.1867 523.874,49.216 L517.846,49.964 L517.846,53.616 C519.958,53.3813 521.557,53.044 522.642,52.604 L523.962,53.66 C524.109,53.7773 524.182,53.88 524.182,53.968 C524.182,54.056 524.05,54.1147 523.786,54.144 L517.846,54.804 L517.846,58.456 C521.425,58.0453 523.845,57.5613 525.106,57.004 L526.646,58.28 C526.851,58.456 526.954,58.5807 526.954,58.654 C526.954,58.7273 526.807,58.7787 526.514,58.808 L517.846,59.644 C517.846,62.1667 517.817,63.89 517.758,64.814 C517.699,65.738 517.567,66.508 517.362,67.124 C520.823,69.0307 525.414,69.9253 531.134,69.808 L531.222,70.424 M522.466,39.976 L517.846,40.724 L517.846,44.068 L522.202,43.54 L522.466,39.976 M522.114,44.772 L517.846,45.344 L517.846,48.732 L521.894,48.028 L522.114,44.772 M505.482,35.048 C505.541,35.136 505.57,35.2313 505.57,35.334 C505.57,35.4367 505.401,35.6053 505.064,35.84 C504.727,36.0747 504.074,37.05 503.106,38.766 C502.138,40.482 501.273,41.8973 500.51,43.012 L500.51,64.924 C500.51,68.6493 500.437,70.886 500.29,71.634 C500.143,72.382 499.967,72.756 499.762,72.756 C499.703,72.756 499.63,72.668 499.542,72.492 L498.002,69.764 C498.647,68.4147 498.97,66.64 498.97,64.44 L498.97,45.212 C497.269,47.5293 495.274,49.7587 492.986,51.9 L492.502,51.328 C495.641,47.808 498.215,44.31 500.224,40.834 C502.233,37.358 503.238,34.608 503.238,32.584 L503.678,32.32 L505.482,35.048 M558.458,35.62 C558.311,36.3533 558.128,37.0207 557.908,37.622 C557.688,38.2233 557.534,38.524 557.446,38.524 C557.358,38.524 557.27,38.4507 557.182,38.304 L553.794,31.924 L554.322,31.748 L558.458,35.62 M575.31,68.444 L567.522,69.148 L557.534,57.4 L557.534,67.212 C557.534,69.4707 557.395,71.15 557.116,72.25 C556.837,73.35 556.61,73.9 556.434,73.9 C556.346,73.9 556.243,73.8267 556.126,73.68 C554.366,71.3627 552.665,69.4853 551.022,68.048 L551.374,67.608 L555.686,70.512 C555.921,69.896 556.038,68.4147 556.038,66.068 L556.038,55.86 C552.137,56.1827 549.643,56.5347 548.558,56.916 L546.886,55.42 L556.038,54.672 L556.038,50.756 C550.963,51.284 548.015,51.724 547.194,52.076 L545.258,50.668 L556.038,49.568 L556.038,46.268 C552.518,46.708 550.318,47.0453 549.438,47.28 L547.81,45.916 L556.038,45.036 C555.95,43.276 555.701,41.7653 555.29,40.504 L545.61,41.384 C545.082,48.4827 544.547,53.7333 544.004,57.136 C543.461,60.5387 542.633,63.4573 541.518,65.892 C540.403,68.3267 538.731,70.7467 536.502,73.152 L535.974,72.668 C538.145,69.94 539.758,67.0653 540.814,64.044 C541.87,61.0227 542.633,57.202 543.102,52.582 C543.571,47.962 543.806,44.42 543.806,41.956 C543.806,39.492 543.689,37.5853 543.454,36.236 L543.938,36.06 L545.918,40.064 C553.31,39.448 558.861,38.9273 562.572,38.502 C566.283,38.0767 568.593,37.6 569.502,37.072 L571.394,38.612 C571.511,38.7293 571.57,38.8247 571.57,38.898 C571.57,38.9713 571.497,39.008 571.35,39.008 L556.434,40.372 L557.49,41.296 C557.725,41.472 557.842,41.6187 557.842,41.736 C557.842,41.8533 557.813,41.9707 557.754,42.088 C557.607,42.4693 557.534,43.3933 557.534,44.86 L563.958,44.156 L565.234,42.176 L567.214,43.32 C567.419,43.4373 567.522,43.54 567.522,43.628 C567.522,43.716 567.478,43.804 567.39,43.892 C566.833,44.4493 566.495,45.1533 566.378,46.004 L566.026,48.556 C568.842,48.204 570.983,47.72 572.45,47.104 L574.254,48.336 C574.43,48.4533 574.518,48.556 574.518,48.644 C574.518,48.732 574.371,48.7907 574.078,48.82 L565.85,49.7 L565.366,53.22 L566.51,54.276 C566.686,54.4227 566.774,54.5547 566.774,54.672 C566.774,54.7893 566.657,54.8627 566.422,54.892 L557.534,55.728 L557.534,55.904 L562.374,61.008 C564.251,59.3947 565.593,58.1553 566.4,57.29 C567.207,56.4247 567.669,55.64 567.786,54.936 L568.226,54.892 L569.106,57.136 C569.135,57.2533 569.15,57.3707 569.15,57.488 C569.15,57.6053 569.047,57.708 568.842,57.796 C567.757,58.2947 565.777,59.556 562.902,61.58 C564.75,63.516 566.209,64.8947 567.28,65.716 C568.351,66.5373 569.414,67.0653 570.47,67.3 C571.526,67.5347 573.125,67.6227 575.266,67.564 L575.31,68.444 M564.838,45.168 L557.534,46.092 L557.534,49.436 L564.442,48.688 L564.838,45.168 M564.31,49.876 L557.534,50.58 L557.534,54.54 L563.914,53.748 L564.31,49.876 M552.078,59.864 C552.195,60.392 552.254,60.8467 552.254,61.228 C552.254,61.844 552.188,62.152 552.056,62.152 C551.924,62.152 551.799,62.1227 551.682,62.064 L546.358,58.368 L546.49,57.84 L552.078,59.864 M554.674,62.504 C551.565,64.2933 549.277,65.6573 547.81,66.596 C546.343,67.5347 545.419,68.2827 545.038,68.84 L542.662,67.344 L554.366,61.976 L554.674,62.504 Z" style="stroke:none;fill-rule:nonzero;fill:#ffffff;fill-opacity:1;"/>
        </g>
    </g>
</svg>
